<svg width="16" height="16" viewBox="0 0 16 16" fill="none" xmlns="http://www.w3.org/2000/svg">
<g clip-path="url(#clip0_3796_24)">
<path d="M15.3005 6.39997C15.1755 6.27499 15.0059 6.20478 14.8292 6.20478C14.6524 6.20478 14.4828 6.27499 14.3578 6.39997L7.0965 13.6926C6.78697 14.0022 6.4195 14.2478 6.01507 14.4153C5.61064 14.5829 5.17717 14.6692 4.7394 14.6692C3.85529 14.6692 3.00737 14.3181 2.38217 13.693C1.75697 13.0679 1.40569 12.22 1.40563 11.3359C1.40557 10.4518 1.75672 9.60385 2.38184 8.97864L9.4145 1.9173C9.79056 1.54722 10.2976 1.34074 10.8252 1.34283C11.3528 1.34491 11.8582 1.5554 12.2314 1.92843C12.6045 2.30147 12.8151 2.80683 12.8173 3.33444C12.8195 3.86205 12.6131 4.36915 12.2432 4.7453L5.2105 11.8066C5.08367 11.9282 4.91481 11.996 4.73917 11.996C4.56352 11.996 4.39467 11.9282 4.26783 11.8066C4.14285 11.6816 4.07264 11.5121 4.07264 11.3353C4.07264 11.1585 4.14285 10.989 4.26783 10.864L10.5292 4.57397C10.6506 4.44823 10.7178 4.27983 10.7163 4.10503C10.7148 3.93023 10.6446 3.76303 10.521 3.63942C10.3974 3.51581 10.2302 3.4457 10.0554 3.44418C9.88063 3.44266 9.71223 3.50986 9.5865 3.6313L3.32517 9.92131C3.13942 10.107 2.99207 10.3275 2.89154 10.5702C2.791 10.8129 2.73926 11.073 2.73926 11.3356C2.73926 11.5983 2.791 11.8584 2.89154 12.1011C2.99207 12.3438 3.13942 12.5643 3.32517 12.75C3.70625 13.1136 4.21275 13.3165 4.7395 13.3165C5.26625 13.3165 5.77275 13.1136 6.15383 12.75L13.1858 5.68797C13.7978 5.06017 14.1378 4.21654 14.1322 3.33981C14.1266 2.46309 13.7758 1.62388 13.1558 1.00398C12.5358 0.384073 11.6966 0.0333909 10.8198 0.0278975C9.94313 0.0224042 9.09954 0.362542 8.47183 0.974629L1.43917 8.03597C0.563956 8.91119 0.0722656 10.0982 0.0722656 11.336C0.0722656 12.5737 0.563956 13.7608 1.43917 14.636C2.31438 15.5112 3.50143 16.0029 4.73917 16.0029C5.97691 16.0029 7.16395 15.5112 8.03916 14.636L15.3005 7.3453C15.3628 7.28335 15.4122 7.2097 15.4459 7.12859C15.4797 7.04747 15.497 6.96049 15.497 6.87264C15.497 6.78479 15.4797 6.69781 15.4459 6.61669C15.4122 6.53557 15.3628 6.46192 15.3005 6.39997Z" fill="#545454"/>
</g>
<defs>
<clipPath id="clip0_3796_24">
<rect width="16" height="16" fill="white"/>
</clipPath>
</defs>
</svg>
