<svg width="345" height="61" viewBox="0 0 345 61" fill="none" xmlns="http://www.w3.org/2000/svg">
<g clip-path="url(#clip0_1673_473)">
<path d="M81.3122 55.462L78.5371 45.1378H79.9568L81.5477 51.9056C81.7189 52.6146 81.8664 53.3188 81.99 54.0183C82.2563 52.9151 82.4133 52.2789 82.4609 52.1099L84.4512 45.1378H86.1206L87.6187 50.3633C87.9945 51.6592 88.2655 52.8775 88.432 54.0183C88.5651 53.3658 88.7387 52.6169 88.9527 51.7718L90.5935 45.1378H91.9847L89.1168 55.462H87.7828L85.5784 47.5955C85.3929 46.9382 85.2836 46.5345 85.2501 46.3843C85.1408 46.8584 85.0385 47.2623 84.9434 47.5955L82.7248 55.462H81.3122ZM97.5207 54.5395C97.0451 54.9386 96.5862 55.2202 96.1438 55.3846C95.7063 55.5489 95.2354 55.631 94.7313 55.631C93.899 55.631 93.2592 55.4315 92.8122 55.0325C92.3652 54.6288 92.1417 54.1147 92.1417 53.4902C92.1417 53.124 92.2249 52.7907 92.3914 52.4902C92.5626 52.185 92.7837 51.9408 93.0547 51.7578C93.3307 51.5747 93.6398 51.4361 93.9821 51.3423C94.2343 51.2765 94.6147 51.2132 95.1236 51.1521C96.1605 51.03 96.9238 50.8845 97.4137 50.7155C97.4184 50.5418 97.4208 50.4315 97.4208 50.3845C97.4208 49.868 97.2995 49.5042 97.0569 49.2929C96.7287 49.0065 96.2412 48.8633 95.5945 48.8633C94.9905 48.8633 94.5434 48.969 94.2532 49.1803C93.968 49.3868 93.7563 49.7554 93.6183 50.2859L92.3627 50.1169C92.4769 49.5864 92.6647 49.1591 92.9264 48.8352C93.1879 48.5065 93.566 48.2553 94.0606 48.0815C94.5553 47.9031 95.1284 47.8138 95.7801 47.8138C96.4268 47.8138 96.9523 47.8889 97.3566 48.0392C97.7608 48.1895 98.0581 48.3797 98.2483 48.6098C98.4386 48.8352 98.5717 49.1215 98.6478 49.469C98.6906 49.6849 98.712 50.0746 98.712 50.6381V52.3282C98.712 53.5067 98.7381 54.2532 98.7905 54.5677C98.8476 54.8776 98.957 55.1757 99.1186 55.462H97.7775C97.6444 55.1992 97.5588 54.8916 97.5207 54.5395ZM97.4137 51.7085C96.9476 51.8962 96.2485 52.0558 95.3163 52.1873C94.7884 52.2624 94.4151 52.3469 94.1962 52.4409C93.9774 52.5348 93.8086 52.6733 93.6897 52.8563C93.5707 53.0348 93.5113 53.2343 93.5113 53.455C93.5113 53.7931 93.6398 54.0748 93.8967 54.3C94.1582 54.5255 94.5386 54.6381 95.0379 54.6381C95.5326 54.6381 95.9725 54.5325 96.3578 54.3212C96.743 54.1052 97.026 53.8118 97.2067 53.4409C97.3447 53.1545 97.4137 52.732 97.4137 52.1733V51.7085ZM105.653 52.7227L106.916 52.8845C106.778 53.7438 106.424 54.4175 105.853 54.9058C105.287 55.3893 104.59 55.631 103.763 55.631C102.726 55.631 101.891 55.2977 101.259 54.631C100.631 53.9597 100.317 52.9996 100.317 51.7507C100.317 50.9432 100.453 50.2366 100.724 49.631C100.995 49.0253 101.406 48.5722 101.958 48.2716C102.514 47.9665 103.118 47.8138 103.77 47.8138C104.593 47.8138 105.266 48.0204 105.789 48.4338C106.312 48.8422 106.647 49.4244 106.795 50.1803L105.546 50.3704C105.427 49.868 105.216 49.4901 104.911 49.2365C104.612 48.983 104.248 48.8562 103.82 48.8562C103.173 48.8562 102.648 49.0863 102.243 49.5465C101.839 50.0019 101.637 50.7248 101.637 51.7155C101.637 52.7202 101.832 53.4503 102.222 53.9057C102.612 54.3611 103.121 54.5889 103.749 54.5889C104.253 54.5889 104.674 54.4362 105.011 54.1311C105.349 53.8259 105.563 53.3564 105.653 52.7227ZM108.015 55.462V45.1378H109.299V48.8422C109.898 48.1567 110.654 47.8138 111.568 47.8138C112.129 47.8138 112.616 47.9241 113.03 48.1448C113.444 48.3609 113.739 48.6614 113.914 49.0464C114.095 49.4313 114.186 49.9901 114.186 50.7226V55.462H112.902V50.7226C112.902 50.0887 112.761 49.6286 112.481 49.3422C112.205 49.0511 111.812 48.9055 111.304 48.9055C110.923 48.9055 110.564 49.0042 110.226 49.2013C109.893 49.3938 109.656 49.6567 109.513 49.9901C109.37 50.3234 109.299 50.7835 109.299 51.3704V55.462H108.015ZM115.648 52.3634V51.0888H119.593V52.3634H115.648ZM125.978 55.462V54.3635C125.389 55.2086 124.586 55.631 123.573 55.631C123.127 55.631 122.709 55.5467 122.318 55.3775C121.932 55.2086 121.646 54.9973 121.455 54.7438C121.27 54.4855 121.139 54.171 121.063 53.8C121.012 53.5512 120.984 53.1568 120.984 52.6169V47.9829H122.269V52.131C122.269 52.793 122.294 53.239 122.347 53.469C122.427 53.8024 122.599 54.0653 122.86 54.2579C123.122 54.4456 123.446 54.5395 123.831 54.5395C124.216 54.5395 124.577 54.4433 124.915 54.2508C125.253 54.0536 125.49 53.7883 125.628 53.455C125.771 53.1169 125.843 52.6287 125.843 51.9902V47.9829H127.127V55.462H125.978ZM129.145 55.462V47.9829H130.301V49.0464C130.858 48.2246 131.662 47.8138 132.712 47.8138C133.169 47.8138 133.588 47.896 133.968 48.0603C134.353 48.2199 134.641 48.4314 134.831 48.6943C135.021 48.9572 135.156 49.2694 135.231 49.631C135.278 49.8657 135.302 50.2765 135.302 50.8634V55.462H134.018V50.9127C134.018 50.3962 133.968 50.0113 133.868 49.7577C133.769 49.4995 133.591 49.2953 133.334 49.145C133.081 48.9901 132.784 48.9126 132.441 48.9126C131.894 48.9126 131.421 49.084 131.022 49.4267C130.627 49.7694 130.43 50.4197 130.43 51.3775V55.462H129.145ZM142.194 55.462V54.5184C141.713 55.2601 141.008 55.631 140.075 55.631C139.471 55.631 138.915 55.4669 138.406 55.1381C137.902 54.8094 137.509 54.3517 137.229 53.7648C136.953 53.1734 136.816 52.4949 136.816 51.7296C136.816 50.9831 136.941 50.3071 137.192 49.7014C137.445 49.091 137.823 48.6239 138.328 48.2997C138.831 47.9758 139.395 47.8138 140.017 47.8138C140.474 47.8138 140.882 47.9101 141.237 48.1026C141.594 48.2905 141.884 48.537 142.109 48.8422V45.1378H143.385V55.462H142.194ZM138.134 51.7296C138.134 52.6873 138.34 53.4034 138.747 53.8776C139.157 54.3517 139.64 54.5889 140.195 54.5889C140.757 54.5889 141.233 54.3635 141.623 53.9128C142.019 53.4573 142.215 52.7648 142.215 51.8352C142.215 50.8117 142.016 50.0605 141.616 49.5816C141.216 49.1027 140.724 48.8633 140.139 48.8633C139.568 48.8633 139.091 49.0934 138.705 49.5535C138.325 50.0135 138.134 50.7389 138.134 51.7296ZM149.22 50.4337C149.22 48.7202 149.687 47.3796 150.618 46.4124C151.551 45.4405 152.754 44.9546 154.229 44.9546C155.194 44.9546 156.065 45.1823 156.839 45.6378C157.616 46.0932 158.205 46.7293 158.609 47.5463C159.017 48.3586 159.223 49.2811 159.223 50.314C159.223 51.361 159.009 52.2977 158.58 53.124C158.153 53.9503 157.546 54.5771 156.761 55.0044C155.976 55.4269 155.13 55.6381 154.222 55.6381C153.237 55.6381 152.356 55.4034 151.582 54.9339C150.807 54.4645 150.219 53.8236 149.82 53.0114C149.421 52.1991 149.22 51.3399 149.22 50.4337ZM150.647 50.4549C150.647 51.6991 150.985 52.6803 151.66 53.3986C152.341 54.1123 153.192 54.469 154.214 54.469C155.256 54.469 156.112 54.1076 156.783 53.3845C157.458 52.6616 157.796 51.6356 157.796 50.3071C157.796 49.4666 157.651 48.7342 157.361 48.1096C157.075 47.4805 156.654 46.9946 156.098 46.6518C155.546 46.3045 154.925 46.1308 154.236 46.1308C153.255 46.1308 152.413 46.4641 151.704 47.1308C150.999 47.7928 150.647 48.9008 150.647 50.4549ZM162.033 55.462H160.842V45.1378H162.125V48.821C162.667 48.1495 163.361 47.8138 164.202 47.8138C164.669 47.8138 165.109 47.9078 165.522 48.0955C165.939 48.2788 166.283 48.5394 166.55 48.8774C166.82 49.2108 167.033 49.6145 167.184 50.0887C167.336 50.5629 167.413 51.0699 167.413 51.6098C167.413 52.8916 167.092 53.8823 166.449 54.5818C165.807 55.2813 165.036 55.631 164.139 55.631C163.243 55.631 162.542 55.2625 162.033 54.5255V55.462ZM162.018 51.6662C162.018 52.5629 162.142 53.2109 162.39 53.6099C162.794 54.2625 163.34 54.5889 164.032 54.5889C164.592 54.5889 165.077 54.3493 165.487 53.8705C165.895 53.3869 166.1 52.6686 166.1 51.7155C166.1 50.7389 165.902 50.0182 165.508 49.5535C165.118 49.0887 164.645 48.8562 164.088 48.8562C163.527 48.8562 163.041 49.0981 162.633 49.5816C162.223 50.0605 162.018 50.7554 162.018 51.6662ZM168.975 46.6096V45.1378H170.26V46.6096H168.975ZM167.348 58.3637L167.592 57.2862C167.848 57.3519 168.05 57.3847 168.197 57.3847C168.458 57.3847 168.654 57.298 168.782 57.124C168.91 56.9551 168.975 56.5279 168.975 55.8423V47.9829H170.26V55.8706C170.26 56.7908 170.137 57.4317 169.895 57.7933C169.586 58.2627 169.072 58.4975 168.354 58.4975C168.006 58.4975 167.672 58.4529 167.348 58.3637ZM177.421 53.0535L178.749 53.2156C178.54 53.9808 178.152 54.5748 177.586 54.9973C177.019 55.4199 176.296 55.631 175.417 55.631C174.308 55.631 173.429 55.2955 172.778 54.6241C172.13 53.948 171.807 53.002 171.807 51.7859C171.807 50.5277 172.135 49.5512 172.792 48.8562C173.447 48.1613 174.298 47.8138 175.344 47.8138C176.357 47.8138 177.187 48.1542 177.828 48.8352C178.47 49.516 178.791 50.4736 178.791 51.7085C178.791 51.7836 178.789 51.8962 178.784 52.0465H173.134C173.181 52.8681 173.417 53.4973 173.84 53.9339C174.262 54.3705 174.791 54.5889 175.425 54.5889C175.894 54.5889 176.296 54.4667 176.629 54.2226C176.963 53.9784 177.226 53.5887 177.421 53.0535ZM173.205 51.0042H177.434C177.378 50.3751 177.217 49.9032 176.951 49.5887C176.542 49.1005 176.012 48.8562 175.36 48.8562C174.769 48.8562 174.272 49.0511 173.869 49.4408C173.469 49.8305 173.247 50.3516 173.205 51.0042ZM180.375 55.462V45.1378H181.66V51.0253L184.697 47.9829H186.359L183.464 50.7578L186.653 55.462H185.069L182.565 51.638L181.66 52.4972V55.462H180.375ZM190.476 54.3283L190.662 55.448C190.301 55.5231 189.977 55.5606 189.692 55.5606C189.226 55.5606 188.864 55.4879 188.607 55.3423C188.35 55.1968 188.17 55.0066 188.065 54.7719C187.96 54.5325 187.908 54.0325 187.908 53.2719V48.969H186.968V47.9829H187.908V46.1308L189.185 45.3701V47.9829H190.476V48.969H189.185V53.3424C189.185 53.7039 189.207 53.9362 189.249 54.0395C189.297 54.1428 189.37 54.225 189.47 54.286C189.576 54.347 189.722 54.3776 189.912 54.3776C190.055 54.3776 190.244 54.3611 190.476 54.3283ZM191.226 53.2296L192.495 53.0325C192.566 53.5348 192.764 53.9198 193.088 54.1874C193.416 54.4551 193.873 54.5889 194.457 54.5889C195.047 54.5889 195.484 54.4714 195.77 54.2367C196.055 53.9973 196.198 53.7178 196.198 53.3986C196.198 53.1123 196.071 52.8868 195.821 52.7227C195.643 52.6099 195.206 52.4666 194.507 52.293C193.566 52.0582 192.911 51.8563 192.546 51.6873C192.184 51.5137 191.909 51.2765 191.718 50.976C191.533 50.6709 191.439 50.3352 191.439 49.969C191.439 49.6357 191.516 49.3281 191.668 49.0464C191.825 48.7601 192.036 48.5229 192.303 48.3351C192.502 48.1894 192.774 48.0674 193.115 47.9689C193.464 47.8655 193.835 47.8138 194.23 47.8138C194.823 47.8138 195.345 47.8984 195.792 48.0674C196.243 48.2365 196.577 48.4666 196.79 48.7577C197.005 49.0441 197.151 49.4291 197.232 49.9126L195.977 50.0817C195.919 49.6967 195.752 49.3962 195.477 49.1803C195.206 48.9643 194.821 48.8562 194.322 48.8562C193.733 48.8562 193.311 48.9525 193.059 49.145C192.808 49.3375 192.682 49.5628 192.682 49.8211C192.682 49.9854 192.733 50.1333 192.838 50.2647C192.942 50.4009 193.106 50.5135 193.331 50.6028C193.459 50.6497 193.838 50.7578 194.464 50.9268C195.373 51.1662 196.005 51.3634 196.363 51.5183C196.724 51.6686 197.007 51.8892 197.21 52.1803C197.416 52.4715 197.518 52.833 197.518 53.2648C197.518 53.6874 197.392 54.0865 197.139 54.4621C196.893 54.833 196.534 55.1217 196.062 55.3283C195.591 55.5302 195.059 55.631 194.464 55.631C193.48 55.631 192.728 55.4292 192.21 55.0255C191.697 54.6217 191.369 54.0231 191.226 53.2296ZM198.189 55.462L200.955 51.5747L198.397 47.9829H200.001L201.163 49.7366C201.381 50.0699 201.559 50.3492 201.691 50.5746C201.9 50.2647 202.094 49.9901 202.269 49.7507L203.546 47.9829H205.079L202.461 51.5043L205.28 55.462H203.703L202.148 53.138L201.734 52.5114L199.744 55.462H198.189ZM206.351 55.462V45.1378H207.633V48.8422C208.233 48.1567 208.99 47.8138 209.904 47.8138C210.464 47.8138 210.952 47.9241 211.364 48.1448C211.779 48.3609 212.073 48.6614 212.25 49.0464C212.43 49.4313 212.521 49.9901 212.521 50.7226V55.462H211.237V50.7226C211.237 50.0887 211.096 49.6286 210.816 49.3422C210.541 49.0511 210.146 48.9055 209.638 48.9055C209.258 48.9055 208.899 49.0042 208.561 49.2013C208.228 49.3938 207.99 49.6567 207.848 49.9901C207.704 50.3234 207.633 50.7835 207.633 51.3704V55.462H206.351ZM219.448 55.462V54.3635C218.859 55.2086 218.056 55.631 217.043 55.631C216.596 55.631 216.179 55.5467 215.788 55.3775C215.402 55.2086 215.115 54.9973 214.924 54.7438C214.74 54.4855 214.609 54.171 214.532 53.8C214.479 53.5512 214.454 53.1568 214.454 52.6169V47.9829H215.739V52.131C215.739 52.793 215.764 53.239 215.817 53.469C215.898 53.8024 216.068 54.0653 216.33 54.2579C216.591 54.4456 216.914 54.5395 217.301 54.5395C217.685 54.5395 218.047 54.4433 218.386 54.2508C218.722 54.0536 218.96 53.7883 219.098 53.455C219.24 53.1169 219.312 52.6287 219.312 51.9902V47.9829H220.596V55.462H219.448ZM225.419 54.3283L225.604 55.448C225.242 55.5231 224.919 55.5606 224.634 55.5606C224.168 55.5606 223.806 55.4879 223.55 55.3423C223.293 55.1968 223.113 55.0066 223.008 54.7719C222.902 54.5325 222.851 54.0325 222.851 53.2719V48.969H221.908V47.9829H222.851V46.1308L224.128 45.3701V47.9829H225.419V48.969H224.128V53.3424C224.128 53.7039 224.149 53.9362 224.192 54.0395C224.24 54.1428 224.312 54.225 224.412 54.286C224.517 54.347 224.666 54.3776 224.854 54.3776C224.997 54.3776 225.186 54.3611 225.419 54.3283ZM226.003 55.462V54.4339L230.827 48.969C230.28 48.9971 229.796 49.0112 229.378 49.0112H226.289V47.9829H232.482V48.821L228.379 53.5676L227.587 54.4339C228.163 54.3916 228.703 54.3705 229.206 54.3705H232.71V55.462H226.003ZM243.111 51.4127V50.2014L247.543 50.1943V54.0254C246.861 54.5606 246.159 54.9645 245.436 55.2368C244.713 55.5043 243.972 55.6381 243.211 55.6381C242.183 55.6381 241.248 55.4221 240.408 54.9902C239.569 54.5536 238.937 53.9246 238.509 53.1029C238.081 52.2813 237.867 51.3634 237.867 50.3492C237.867 49.3446 238.079 48.4079 238.502 47.5392C238.93 46.666 239.544 46.018 240.343 45.5954C241.141 45.173 242.063 44.9617 243.104 44.9617C243.859 44.9617 244.543 45.0838 245.151 45.3279C245.765 45.5673 246.246 45.903 246.593 46.335C246.939 46.7669 247.204 47.3303 247.384 48.0251L246.136 48.3633C245.98 47.8374 245.784 47.4242 245.551 47.1237C245.317 46.8232 244.985 46.5838 244.552 46.4054C244.12 46.2222 243.639 46.1308 243.111 46.1308C242.479 46.1308 241.931 46.2269 241.471 46.4195C241.009 46.6072 240.635 46.8561 240.35 47.166C240.069 47.4758 239.85 47.8162 239.694 48.1872C239.427 48.8257 239.294 49.5182 239.294 50.2647C239.294 51.1849 239.454 51.955 239.772 52.5747C240.096 53.1944 240.564 53.6545 241.177 53.955C241.793 54.2554 242.443 54.4057 243.133 54.4057C243.731 54.4057 244.317 54.2931 244.886 54.0677C245.459 53.8377 245.89 53.5936 246.186 53.3353V51.4127H243.111ZM249.425 55.462V47.9829H250.573V49.0323C250.812 48.6661 251.127 48.3727 251.522 48.152C251.916 47.9265 252.367 47.8138 252.871 47.8138C253.432 47.8138 253.891 47.9288 254.247 48.159C254.609 48.3892 254.864 48.7107 255.011 49.1239C255.61 48.2505 256.389 47.8138 257.35 47.8138C258.101 47.8138 258.68 48.0204 259.085 48.4338C259.487 48.8422 259.69 49.4736 259.69 50.3281V55.462H258.413V50.7507C258.413 50.2436 258.369 49.8798 258.285 49.6591C258.204 49.4337 258.055 49.253 257.835 49.1168C257.617 48.9806 257.36 48.9126 257.065 48.9126C256.533 48.9126 256.091 49.0887 255.737 49.4408C255.388 49.7882 255.21 50.347 255.21 51.1169V55.462H253.927V50.6028C253.927 50.0394 253.823 49.6168 253.612 49.3352C253.403 49.0535 253.061 48.9126 252.585 48.9126C252.223 48.9126 251.889 49.0065 251.579 49.1943C251.275 49.3821 251.053 49.6567 250.915 50.0182C250.778 50.3798 250.71 50.9009 250.71 51.5817V55.462H249.425ZM262.779 55.462H261.587V45.1378H262.872V48.821C263.414 48.1495 264.106 47.8138 264.949 47.8138C265.415 47.8138 265.855 47.9078 266.267 48.0955C266.687 48.2788 267.029 48.5394 267.295 48.8774C267.567 49.2108 267.778 49.6145 267.931 50.0887C268.082 50.5629 268.159 51.0699 268.159 51.6098C268.159 52.8916 267.837 53.8823 267.195 54.5818C266.553 55.2813 265.782 55.631 264.885 55.631C263.99 55.631 263.289 55.2625 262.779 54.5255V55.462ZM262.765 51.6662C262.765 52.5629 262.889 53.2109 263.136 53.6099C263.54 54.2625 264.087 54.5889 264.777 54.5889C265.338 54.5889 265.823 54.3493 266.232 53.8705C266.641 53.3869 266.845 52.6686 266.845 51.7155C266.845 50.7389 266.648 50.0182 266.253 49.5535C265.865 49.0887 265.391 48.8562 264.835 48.8562C264.273 48.8562 263.788 49.0981 263.379 49.5816C262.969 50.0605 262.765 50.7554 262.765 51.6662ZM269.934 55.462V45.1378H271.319V49.3774H276.755V45.1378H278.139V55.462H276.755V50.5958H271.319V55.462H269.934ZM290.331 54.2438C289.909 54.7086 289.447 55.0583 288.947 55.2931C288.447 55.5231 287.908 55.6381 287.328 55.6381C286.259 55.6381 285.409 55.2813 284.781 54.5677C284.272 53.9855 284.017 53.3353 284.017 52.6169C284.017 51.9784 284.225 51.4033 284.637 50.8915C285.055 50.3751 285.679 49.9221 286.506 49.5323C286.036 48.9971 285.724 48.5628 285.565 48.2294C285.409 47.896 285.33 47.5744 285.33 47.2645C285.33 46.6448 285.575 46.1072 286.065 45.6518C286.559 45.1917 287.18 44.9617 287.928 44.9617C288.64 44.9617 289.223 45.1777 289.674 45.6096C290.131 46.0415 290.36 46.5603 290.36 47.166C290.36 48.1472 289.701 48.9854 288.384 49.6803L290.26 52.0395C290.474 51.6263 290.64 51.1474 290.759 50.6028L292.093 50.8845C291.864 51.7859 291.555 52.5277 291.166 53.1099C291.647 53.739 292.19 54.2672 292.799 54.6945L291.935 55.7015C291.417 55.3729 290.882 54.8869 290.331 54.2438ZM287.72 48.8633C288.275 48.5394 288.636 48.2553 288.797 48.011C288.964 47.7669 289.047 47.497 289.047 47.2012C289.047 46.849 288.933 46.5626 288.704 46.342C288.481 46.1166 288.2 46.004 287.863 46.004C287.516 46.004 287.225 46.1143 286.992 46.335C286.765 46.5557 286.649 46.8256 286.649 47.1448C286.649 47.3044 286.69 47.4734 286.772 47.6519C286.857 47.8256 286.982 48.011 287.148 48.2083L287.72 48.8633ZM289.525 53.2437L287.171 50.3633C286.476 50.7718 286.007 51.1521 285.766 51.5043C285.523 51.8516 285.402 52.1967 285.402 52.5395C285.402 52.9573 285.57 53.3916 285.908 53.8424C286.245 54.2931 286.723 54.5184 287.343 54.5184C287.726 54.5184 288.124 54.401 288.534 54.1663C288.947 53.9268 289.278 53.6193 289.525 53.2437ZM305.79 51.8423L307.174 52.1873C306.885 53.3094 306.361 54.1663 305.606 54.7578C304.853 55.3447 303.933 55.6381 302.844 55.6381C301.716 55.6381 300.798 55.4128 300.09 54.962C299.387 54.5066 298.85 53.8493 298.478 52.9902C298.111 52.131 297.929 51.2085 297.929 50.2226C297.929 49.1473 298.136 48.2107 298.549 47.4125C298.968 46.6096 299.56 46.0016 300.326 45.5885C301.096 45.1706 301.944 44.9617 302.865 44.9617C303.911 44.9617 304.792 45.2245 305.505 45.7504C306.219 46.2762 306.716 47.0157 306.996 47.9689L305.633 48.2857C305.391 47.5345 305.038 46.9875 304.578 46.6448C304.117 46.3021 303.536 46.1308 302.837 46.1308C302.032 46.1308 301.359 46.3209 300.817 46.7012C300.28 47.0815 299.903 47.5933 299.684 48.2365C299.465 48.8751 299.356 49.5347 299.356 50.2155C299.356 51.0935 299.484 51.861 299.74 52.5183C300.002 53.171 300.406 53.6592 300.953 53.9832C301.5 54.3071 302.093 54.469 302.73 54.469C303.506 54.469 304.161 54.2485 304.7 53.8071C305.237 53.3658 305.601 52.7109 305.79 51.8423ZM308.245 51.7225C308.245 50.3376 308.633 49.3116 309.415 48.6451C310.066 48.0909 310.861 47.8138 311.797 47.8138C312.839 47.8138 313.69 48.152 314.351 48.8281C315.013 49.4995 315.342 50.429 315.342 51.6169C315.342 52.5794 315.196 53.3375 314.9 53.8916C314.61 54.4409 314.185 54.8682 313.624 55.1733C313.067 55.4785 312.459 55.631 311.797 55.631C310.736 55.631 309.879 55.2955 309.221 54.6241C308.57 53.9527 308.245 52.9855 308.245 51.7225ZM309.564 51.7225C309.564 52.6803 309.776 53.3986 310.198 53.8776C310.621 54.3517 311.155 54.5889 311.797 54.5889C312.435 54.5889 312.965 54.3493 313.388 53.8705C313.811 53.3916 314.024 52.6616 314.024 51.6802C314.024 50.7554 313.809 50.0559 313.381 49.5816C312.958 49.1027 312.43 48.8633 311.797 48.8633C311.155 48.8633 310.621 49.1005 310.198 49.5746C309.776 50.0488 309.564 50.7647 309.564 51.7225ZM317.219 55.462V54.0183H318.681V55.462H317.219ZM325.096 55.462V45.1378H326.478V50.2577L331.672 45.1378H333.549L329.162 49.3211L333.741 55.462H331.916L328.191 50.2366L326.478 51.8846V55.462H325.096ZM339.79 51.4127V50.2014L344.221 50.1943V54.0254C343.54 54.5606 342.84 54.9645 342.116 55.2368C341.394 55.5043 340.652 55.6381 339.89 55.6381C338.863 55.6381 337.929 55.4221 337.087 54.9902C336.25 54.5536 335.617 53.9246 335.19 53.1029C334.762 52.2813 334.548 51.3634 334.548 50.3492C334.548 49.3446 334.759 48.4079 335.182 47.5392C335.61 46.666 336.223 46.018 337.024 45.5954C337.822 45.173 338.742 44.9617 339.783 44.9617C340.539 44.9617 341.223 45.0838 341.831 45.3279C342.445 45.5673 342.925 45.903 343.272 46.335C343.62 46.7669 343.884 47.3303 344.064 48.0251L342.817 48.3633C342.658 47.8374 342.464 47.4242 342.232 47.1237C341.997 46.8232 341.665 46.5838 341.232 46.4054C340.799 46.2222 340.318 46.1308 339.79 46.1308C339.159 46.1308 338.611 46.2269 338.15 46.4195C337.688 46.6072 337.315 46.8561 337.031 47.166C336.75 47.4758 336.531 47.8162 336.373 48.1872C336.108 48.8257 335.974 49.5182 335.974 50.2647C335.974 51.1849 336.133 51.955 336.453 52.5747C336.775 53.1944 337.244 53.6545 337.857 53.955C338.471 54.2554 339.123 54.4057 339.812 54.4057C340.412 54.4057 340.996 54.2931 341.567 54.0677C342.138 53.8377 342.57 53.5936 342.866 53.3353V51.4127H339.79Z" fill="#9AB9D7"/>
<path d="M78.9395 26.5593V4.43586H81.7983V13.5206H93.0279V4.43586H95.8869V26.5593H93.0279V16.1313H81.7983V26.5593H78.9395ZM110.535 24.5824C109.553 25.4375 108.605 26.0411 107.691 26.3933C106.787 26.7455 105.815 26.9215 104.773 26.9215C103.054 26.9215 101.732 26.4939 100.809 25.6387C99.8854 24.7735 99.4237 23.6719 99.4237 22.3338C99.4237 21.5491 99.5957 20.8348 99.9395 20.1908C100.293 19.537 100.75 19.0138 101.31 18.6215C101.88 18.229 102.519 17.9322 103.226 17.731C103.747 17.5902 104.533 17.4543 105.584 17.3236C107.726 17.0619 109.302 16.75 110.314 16.3879C110.324 16.0156 110.329 15.7792 110.329 15.6786C110.329 14.5719 110.078 13.7922 109.578 13.3396C108.9 12.7258 107.892 12.419 106.556 12.419C105.309 12.419 104.385 12.6454 103.786 13.098C103.196 13.5407 102.759 14.3306 102.474 15.4673L99.8806 15.1052C100.116 13.9683 100.504 13.0528 101.045 12.3587C101.585 11.6544 102.366 11.1161 103.388 10.7439C104.41 10.3616 105.593 10.1704 106.94 10.1704C108.276 10.1704 109.361 10.3314 110.196 10.6534C111.032 10.9753 111.646 11.3828 112.038 11.8757C112.432 12.3587 112.707 12.9723 112.864 13.7168C112.952 14.1796 112.996 15.0146 112.996 16.2219V19.8439C112.996 22.3691 113.05 23.9687 113.159 24.6427C113.276 25.3068 113.502 25.9456 113.836 26.5593H111.066C110.791 25.9959 110.614 25.3369 110.535 24.5824ZM110.314 18.5157C109.351 18.9183 107.907 19.2603 105.982 19.5421C104.891 19.703 104.12 19.8841 103.668 20.0853C103.216 20.2865 102.867 20.5833 102.622 20.9757C102.376 21.3579 102.253 21.7855 102.253 22.2584C102.253 22.9828 102.518 23.5864 103.049 24.0693C103.589 24.5522 104.375 24.7937 105.407 24.7937C106.429 24.7937 107.337 24.5674 108.133 24.1145C108.929 23.6517 109.514 23.023 109.887 22.2282C110.172 21.6145 110.314 20.709 110.314 19.5118V18.5157ZM127.38 26.5593V24.2051C126.161 26.016 124.506 26.9215 122.413 26.9215C121.489 26.9215 120.625 26.7404 119.82 26.3783C119.024 26.016 118.429 25.5633 118.036 25.02C117.653 24.4666 117.383 23.7926 117.226 22.9979C117.118 22.4646 117.064 21.6196 117.064 20.4625V10.5326H119.716V19.4213C119.716 20.8399 119.77 21.7956 119.879 22.2885C120.046 23.0028 120.399 23.5663 120.94 23.9787C121.479 24.3812 122.148 24.5824 122.943 24.5824C123.739 24.5824 124.487 24.3761 125.184 23.9636C125.882 23.5412 126.372 22.9727 126.657 22.2584C126.953 21.534 127.1 20.4877 127.1 19.1195V10.5326H129.752V26.5593H127.38ZM132.862 21.7754L135.485 21.3528C135.632 22.4294 136.041 23.2544 136.708 23.8278C137.387 24.4013 138.329 24.688 139.538 24.688C140.756 24.688 141.66 24.4365 142.25 23.9335C142.839 23.4204 143.134 22.8218 143.134 22.1377C143.134 21.524 142.873 21.0411 142.352 20.6889C141.989 20.4475 141.085 20.1406 139.642 19.7684C137.696 19.2654 136.345 18.8327 135.587 18.4704C134.842 18.0982 134.273 17.5902 133.878 16.9462C133.495 16.2923 133.304 15.573 133.304 14.7883C133.304 14.074 133.461 13.415 133.776 12.8113C134.1 12.1977 134.537 11.6896 135.086 11.2872C135.5 10.9753 136.06 10.7137 136.767 10.5025C137.484 10.2811 138.251 10.1704 139.066 10.1704C140.294 10.1704 141.37 10.3515 142.293 10.7137C143.227 11.0759 143.914 11.5689 144.357 12.1926C144.799 12.8064 145.103 13.6313 145.27 14.6675L142.678 15.0297C142.559 14.2047 142.215 13.5609 141.645 13.098C141.085 12.6353 140.289 12.4039 139.257 12.4039C138.039 12.4039 137.169 12.6102 136.649 13.0225C136.128 13.4351 135.869 13.918 135.869 14.4713C135.869 14.8235 135.977 15.1403 136.192 15.422C136.408 15.7139 136.747 15.9552 137.209 16.1464C137.474 16.247 138.256 16.4784 139.553 16.8406C141.429 17.3536 142.735 17.7762 143.472 18.1082C144.22 18.4302 144.804 18.9031 145.227 19.5269C145.649 20.1507 145.86 20.9253 145.86 21.8509C145.86 22.7563 145.599 23.6115 145.078 24.4164C144.567 25.2112 143.827 25.83 142.853 26.2725C141.881 26.7052 140.78 26.9215 139.553 26.9215C137.519 26.9215 135.966 26.4889 134.895 25.6237C133.835 24.7585 133.156 23.4757 132.862 21.7754ZM159.225 20.6889L161.834 21.036C161.55 22.8771 160.817 24.3208 159.639 25.3671C158.469 26.4034 157.03 26.9215 155.32 26.9215C153.18 26.9215 151.454 26.2071 150.149 24.7785C148.851 23.3398 148.203 21.2825 148.203 18.6064C148.203 16.8759 148.483 15.3617 149.043 14.0639C149.603 12.7661 150.453 11.7953 151.592 11.1514C152.742 10.4974 153.989 10.1704 155.336 10.1704C157.036 10.1704 158.426 10.6131 159.507 11.4985C160.587 12.3738 161.28 13.6212 161.584 15.241L159.006 15.6485C158.759 14.5719 158.323 13.7621 157.693 13.2188C157.074 12.6755 156.323 12.4039 155.438 12.4039C154.103 12.4039 153.016 12.8969 152.182 13.8829C151.347 14.8587 150.929 16.4081 150.929 18.5308C150.929 20.6839 151.331 22.2483 152.138 23.2242C152.943 24.2002 153.995 24.688 155.292 24.688C156.332 24.688 157.201 24.3611 157.9 23.707C158.597 23.0532 159.039 22.0471 159.225 20.6889ZM164.104 26.5593V4.43586H166.757V12.3738C167.995 10.9049 169.556 10.1704 171.443 10.1704C172.603 10.1704 173.609 10.4069 174.463 10.8797C175.318 11.3425 175.927 11.9864 176.291 12.8113C176.665 13.6363 176.851 14.8336 176.851 16.4029V26.5593H174.199V16.4029C174.199 15.0447 173.909 14.0589 173.329 13.4451C172.76 12.8214 171.95 12.5096 170.898 12.5096C170.111 12.5096 169.371 12.7209 168.672 13.1433C167.985 13.5558 167.493 14.1193 167.199 14.8336C166.903 15.5477 166.757 16.5338 166.757 17.7914V26.5593H164.104ZM180.919 7.5597V4.43586H183.571V7.5597H180.919ZM180.919 26.5593V10.5326H183.571V26.5593H180.919ZM187.566 26.5593V4.43586H190.218V26.5593H187.566ZM204.498 26.5593V24.5371C203.505 26.1267 202.046 26.9215 200.122 26.9215C198.873 26.9215 197.724 26.5694 196.672 25.8651C195.631 25.1609 194.82 24.18 194.241 22.9224C193.671 21.6548 193.386 20.2011 193.386 18.5609C193.386 16.9613 193.647 15.5126 194.167 14.2148C194.688 12.907 195.469 11.9059 196.511 11.2117C197.552 10.5175 198.715 10.1704 200.003 10.1704C200.946 10.1704 201.787 10.3767 202.523 10.7892C203.26 11.1916 203.86 11.7198 204.321 12.3738V4.43586H206.959V26.5593H204.498ZM196.113 18.5609C196.113 20.6134 196.535 22.1477 197.38 23.1638C198.225 24.18 199.223 24.688 200.372 24.688C201.53 24.688 202.513 24.2051 203.32 23.2392C204.134 22.2634 204.542 20.7795 204.542 18.7875C204.542 16.5941 204.13 14.9844 203.304 13.9582C202.479 12.9321 201.462 12.419 200.254 12.419C199.075 12.419 198.087 12.912 197.291 13.8979C196.506 14.8838 196.113 16.4381 196.113 18.5609ZM216.936 24.1296L217.319 26.5291C216.572 26.6901 215.904 26.7706 215.315 26.7706C214.352 26.7706 213.605 26.6147 213.073 26.3028C212.545 25.9909 212.171 25.5835 211.954 25.0803C211.739 24.5674 211.631 23.4959 211.631 21.8661V12.6454H209.685V10.5326H211.631V6.5637L214.268 4.93387V10.5326H216.936V12.6454H214.268V22.0169C214.268 22.7915 214.313 23.2896 214.4 23.5109C214.5 23.7323 214.65 23.9083 214.858 24.0391C215.073 24.1699 215.38 24.2353 215.77 24.2353C216.066 24.2353 216.454 24.2002 216.936 24.1296ZM240.293 23.9486C239.419 24.9445 238.467 25.6941 237.435 26.1971C236.404 26.6901 235.288 26.9366 234.089 26.9366C231.878 26.9366 230.125 26.1719 228.828 24.6427C227.778 23.3953 227.251 22.0019 227.251 20.4625C227.251 19.0943 227.678 17.8618 228.534 16.7652C229.399 15.6584 230.685 14.6877 232.394 13.8526C231.422 12.7058 230.774 11.7751 230.451 11.0608C230.125 10.3465 229.964 9.65735 229.964 8.99335C229.964 7.66534 230.47 6.5134 231.482 5.53751C232.502 4.55156 233.786 4.05859 235.327 4.05859C236.802 4.05859 238.005 4.52138 238.939 5.44697C239.882 6.37255 240.352 7.48424 240.352 8.78207C240.352 10.8848 238.993 12.6806 236.27 14.1695L240.146 19.2251C240.589 18.3397 240.932 17.3135 241.178 16.1464L243.934 16.75C243.462 18.6817 242.823 20.2714 242.019 21.519C243.011 22.867 244.136 23.9989 245.393 24.9143L243.609 27.0724C242.539 26.3681 241.435 25.327 240.293 23.9486ZM234.9 12.419C236.049 11.7248 236.792 11.1162 237.125 10.593C237.469 10.0698 237.64 9.49136 237.64 8.85753C237.64 8.10297 237.406 7.48928 236.934 7.01643C236.472 6.53352 235.892 6.29207 235.195 6.29207C234.477 6.29207 233.878 6.52848 233.397 7.00134C232.925 7.47418 232.69 8.05268 232.69 8.7368C232.69 9.07886 232.774 9.44106 232.94 9.82335C233.118 10.1956 233.377 10.593 233.721 11.0155L234.9 12.419ZM238.628 21.8056L233.765 15.6333C232.33 16.5087 231.363 17.3236 230.862 18.0781C230.36 18.8226 230.11 19.5621 230.11 20.2966C230.11 21.1919 230.46 22.1226 231.157 23.0884C231.854 24.0541 232.842 24.5371 234.12 24.5371C234.915 24.5371 235.735 24.2856 236.58 23.7825C237.435 23.2695 238.118 22.6105 238.628 21.8056ZM256.697 26.5593V4.43586H264.801C266.451 4.43586 267.774 4.66223 268.765 5.11496C269.768 5.55764 270.549 6.24679 271.108 7.18243C271.679 8.10802 271.963 9.07886 271.963 10.095C271.963 11.0407 271.712 11.9311 271.212 12.7661C270.712 13.601 269.954 14.2752 268.942 14.7883C270.249 15.1806 271.252 15.8497 271.949 16.7953C272.656 17.741 273.01 18.8578 273.01 20.1457C273.01 21.1818 272.794 22.1477 272.361 23.0431C271.938 23.9284 271.413 24.6125 270.784 25.0955C270.155 25.5784 269.365 25.9456 268.412 26.1971C267.468 26.4386 266.31 26.5593 264.933 26.5593H256.697ZM259.555 13.7319H264.227C265.495 13.7319 266.402 13.6463 266.953 13.4754C267.68 13.254 268.225 12.8868 268.588 12.3738C268.962 11.8606 269.149 11.2168 269.149 10.4421C269.149 9.70765 268.977 9.06378 268.633 8.51044C268.289 7.94704 267.798 7.56473 267.159 7.36351C266.521 7.15225 265.425 7.0466 263.872 7.0466H259.555V13.7319ZM259.555 23.9486H264.933C265.856 23.9486 266.506 23.9134 266.879 23.8428C267.537 23.7222 268.088 23.521 268.53 23.2392C268.972 22.9576 269.336 22.5502 269.62 22.0169C269.906 21.4736 270.046 20.8498 270.046 20.1457C270.046 19.3207 269.841 18.6062 269.429 18.0026C269.015 17.389 268.441 16.9613 267.705 16.72C266.977 16.4684 265.925 16.3426 264.551 16.3426H259.555V23.9486ZM276.546 26.5593V4.43586H279.199V26.5593H276.546ZM293.582 26.5593V24.2051C292.365 26.016 290.708 26.9215 288.616 26.9215C287.693 26.9215 286.827 26.7404 286.022 26.3783C285.226 26.016 284.632 25.5633 284.238 25.02C283.856 24.4666 283.586 23.7926 283.428 22.9979C283.321 22.4646 283.267 21.6196 283.267 20.4625V10.5326H285.92V19.4213C285.92 20.8399 285.974 21.7956 286.081 22.2885C286.248 23.0028 286.603 23.5663 287.142 23.9787C287.683 24.3812 288.351 24.5824 289.147 24.5824C289.942 24.5824 290.689 24.3761 291.386 23.9636C292.085 23.5412 292.575 22.9727 292.86 22.2584C293.154 21.534 293.303 20.4877 293.303 19.1195V10.5326H295.956V26.5593H293.582ZM300.125 26.5593V10.5326H302.512V12.8113C303.663 11.0508 305.324 10.1704 307.494 10.1704C308.438 10.1704 309.302 10.3465 310.088 10.6986C310.882 11.0407 311.479 11.4934 311.87 12.0568C312.263 12.6202 312.54 13.2892 312.697 14.0639C312.795 14.5669 312.843 15.4471 312.843 16.7048V26.5593H310.19V16.8104C310.19 15.7038 310.088 14.8788 309.881 14.3355C309.674 13.7821 309.307 13.3445 308.775 13.0225C308.255 12.6906 307.641 12.5246 306.934 12.5246C305.804 12.5246 304.827 12.8919 304 13.6263C303.187 14.3606 302.779 15.7541 302.779 17.8065V26.5593H300.125ZM327.138 20.6889L329.746 21.036C329.463 22.8771 328.731 24.3208 327.55 25.3671C326.382 26.4034 324.942 26.9215 323.233 26.9215C321.091 26.9215 319.368 26.2071 318.06 24.7785C316.763 23.3398 316.114 21.2825 316.114 18.6064C316.114 16.8759 316.396 15.3617 316.956 14.0639C317.516 12.7661 318.365 11.7953 319.505 11.1514C320.654 10.4974 321.902 10.1704 323.248 10.1704C324.947 10.1704 326.338 10.6131 327.418 11.4985C328.499 12.3738 329.191 13.6212 329.496 15.241L326.917 15.6485C326.673 14.5719 326.234 13.7621 325.606 13.2188C324.987 12.6755 324.236 12.4039 323.351 12.4039C322.016 12.4039 320.93 12.8969 320.094 13.8829C319.259 14.8587 318.843 16.4081 318.843 18.5308C318.843 20.6839 319.244 22.2483 320.049 23.2242C320.855 24.2002 321.906 24.688 323.204 24.688C324.245 24.688 325.115 24.3611 325.813 23.707C326.51 23.0532 326.951 22.0471 327.138 20.6889ZM332.031 26.5593V4.43586H334.684V17.0519L340.961 10.5326H344.394L338.412 16.4784L345 26.5593H341.727L336.555 18.3648L334.684 20.206V26.5593H332.031Z" fill="white"/>
<path fill-rule="evenodd" clip-rule="evenodd" d="M-0.667084 61.093C2.54171 61.093 1.55649 61.2756 2.15558 58.3307C2.30516 57.5953 2.40036 57.6598 2.53343 56.8479L3.65029 50.3802C3.74639 49.8364 3.9113 49.3576 4.00718 48.7334L4.88085 44.026C5.06782 43.2649 4.92303 43.1438 5.31047 41.5936C5.51256 40.7852 5.4757 40.003 5.70393 39.125C6.09886 37.6057 6.04848 37.1963 6.34937 35.9065C6.49177 35.2961 6.42145 34.8513 6.53892 34.2359C6.62438 33.788 6.86183 33.4602 6.9206 32.757L7.52934 29.5018C7.77598 28.9625 9.75059 29.1903 10.9442 29.1903H22.4123C25.6243 29.1922 24.6385 29.3352 25.3889 26.4358C25.5229 25.9172 25.8415 25.0415 25.136 25.0415H5.7837C4.95114 25.0415 5.26147 26.6834 4.82871 28.0941L4.02421 32.7277C3.95734 33.0889 3.81359 33.3718 3.71267 33.8474L1.64905 45.3787C1.45041 47.3028 1.2869 46.8582 1.20378 47.6526L0.0145819 54.6201C-0.081792 55.0072 -0.160927 55.1539 -0.233591 55.66C-0.494652 57.4791 -0.632449 57.4402 -0.831242 59.2125C-0.911014 59.9236 -1.59878 61.093 -0.667084 61.093Z" fill="white"/>
<path fill-rule="evenodd" clip-rule="evenodd" d="M28.7202 61.0929H30.5837C31.4952 61.0929 31.3672 58.8751 31.5815 58.083C31.7798 57.3496 31.7971 57.3472 31.9149 56.4128C32.1032 54.9176 33.4507 48.9672 33.4507 47.9313C34.2013 47.7568 35.8505 47.89 36.2571 47.871C36.9628 47.8382 36.5818 47.9313 37.1778 47.9313C37.8337 47.9313 37.8284 47.802 38.3111 47.8166L41.0146 47.9648C41.4389 48.0531 41.5126 48.2247 42.0711 48.3412C43.6299 48.6659 44.4701 49.3093 45.5391 49.8873C45.8039 50.0306 45.7689 50.0083 46.0655 50.0772C46.0655 49.1508 45.9235 49.2158 45.6574 48.6248C45.5288 48.3394 45.5237 48.3082 45.3836 48.0397C45.2706 47.8237 45.1635 47.6062 45.0172 47.4039C43.7632 45.6702 41.7328 44.6922 39.6885 44.1383C39.3867 44.0566 39.1506 44.0514 38.8476 43.9762C38.1983 43.8148 37.9662 43.6396 37.1778 43.6396H32.0171C30.9537 43.6396 31.0593 45.5715 30.8761 46.5066L30.1614 49.942C29.9821 50.7251 29.9936 51.4715 29.771 52.2706L28.54 59.1966C28.5376 59.2151 28.4524 59.6869 28.4222 59.7991C28.302 60.2452 28.3251 59.9901 28.2341 60.3479C28.1327 60.7462 28.2237 61.0929 28.7202 61.0929Z" fill="white"/>
<path fill-rule="evenodd" clip-rule="evenodd" d="M35.0287 24.614C34.3632 25.8692 33.633 31.9363 33.1456 33.7498C33.0258 34.195 32.9681 34.8346 32.8814 35.3461C32.5807 37.1193 31.8562 37.346 34.8854 37.346C35.5088 37.346 35.7001 36.1934 35.8117 35.5523C36.0286 34.3039 35.7704 35.0969 36.2102 33.2321C36.4296 32.3027 36.1173 32.4063 36.6094 30.9122C37.5043 28.1952 34.7098 28.7626 43.7731 28.7626C44.4895 28.7626 45.2781 28.8477 45.7808 29.0482C46.0922 29.1724 47.2135 29.9195 47.2135 29.0487C47.2135 27.3058 45.9721 26.0652 44.5804 25.3819C43.2754 24.741 44.0869 25.2041 43.0974 24.8591C40.8445 24.0733 37.3555 24.614 35.0287 24.614Z" fill="white"/>
<path fill-rule="evenodd" clip-rule="evenodd" d="M7.35939 17.1748C10.6708 17.1748 9.57316 17.3463 10.0786 15.3103L11.4801 7.69568C11.6196 7.15117 11.7035 7.20713 11.7822 6.70952L12.4808 2.24806C12.5478 2.05908 13.4258 1.00765 11.6599 1.00765C9.37426 1.00765 9.98575 0.654718 9.09638 4.7443C8.93879 5.46872 8.98165 6.19269 8.78015 6.86091C8.68876 7.16408 8.56577 7.53602 8.52684 7.89573C8.47835 8.34378 8.46859 8.79009 8.39975 9.05652C8.27957 9.52142 8.18553 9.5816 8.11759 9.91949L7.42202 14.2328C7.30708 14.7823 6.41369 17.1748 7.35939 17.1748Z" fill="white"/>
<path fill-rule="evenodd" clip-rule="evenodd" d="M36.7486 16.746C39.6815 16.746 39.0486 17.0648 39.5891 15.146L41.1933 6.73333C41.335 5.26831 41.4827 5.73816 41.6709 4.63496C41.8935 3.32963 41.5377 4.2779 42.0637 2.58222C42.5875 0.893472 41.0325 1.31918 39.9284 1.38746C39.6461 1.40492 39.5262 1.22624 39.258 1.78808C38.8903 2.5584 38.3014 6.74498 38.1684 7.14796C37.8277 8.18083 37.4355 11.0912 37.044 12.6063C36.8455 13.3749 36.9469 14.0406 36.6802 14.8181C36.516 15.297 35.9767 16.746 36.7486 16.746Z" fill="white"/>
<path fill-rule="evenodd" clip-rule="evenodd" d="M49.6504 40.4932C51.2041 40.8546 52.5144 42.9223 52.9475 43.2119C54.5693 42.8347 54.2393 41.4903 54.2377 40.4933C54.2357 39.1102 54.2376 37.7269 54.2376 36.3438C54.0363 36.4784 53.8308 36.5882 53.6544 36.7633C52.7525 37.6591 52.3623 38.4288 50.8283 39.3795C50.2076 39.764 49.7178 39.6867 49.6504 40.4932Z" fill="white"/>
</g>
<defs>
<clipPath id="clip0_1673_473">
<rect width="345" height="61" fill="white"/>
</clipPath>
</defs>
</svg>
