<svg width="50" height="50" viewBox="0 0 50 50" fill="none" xmlns="http://www.w3.org/2000/svg">
<g clip-path="url(#clip0_1673_117)">
<path d="M31.2011 25.9959H31.2541C31.8041 25.9959 32.2501 25.5499 32.2501 24.9999C32.2501 24.4499 31.8041 24.0039 31.2541 24.0039H31.2011C30.6511 24.0039 30.2051 24.4499 30.2051 24.9999C30.2051 25.5499 30.6512 25.9959 31.2011 25.9959Z" fill="#034F9A"/>
<path d="M49.9999 24.9625C50.0107 24.6944 49.9149 24.4228 49.7101 24.218L45.206 19.7139C44.817 19.3251 44.1865 19.3251 43.7974 19.7139C43.4084 20.1028 43.4084 20.7335 43.7974 21.1226L46.6788 24.0039H40.2716C39.7779 16.3578 33.644 10.224 25.9978 9.73026V3.3231L28.8791 6.20437C29.0736 6.39879 29.3285 6.4961 29.5834 6.4961C29.8382 6.4961 30.0931 6.39879 30.2876 6.20437C30.6766 5.81543 30.6766 5.18475 30.2876 4.79571L25.7837 0.291732C25.5793 0.0873504 25.3081 -0.00846612 25.0403 0.00199203C25.0275 0.00149402 25.0148 0 25.0019 0C24.9889 0 24.9762 0.00149402 24.9633 0.00199203C24.6956 -0.00846612 24.4245 0.0873504 24.22 0.291732L19.7159 4.79581C19.327 5.18475 19.327 5.81543 19.7159 6.20447C19.9105 6.39889 20.1654 6.4962 20.4202 6.4962C20.6751 6.4962 20.9301 6.39889 21.1245 6.20447L24.0059 3.323V9.73016C16.3598 10.224 10.2258 16.3578 9.73221 24.0039H3.35125L6.23272 21.1225C6.62166 20.7335 6.62166 20.1028 6.23272 19.7138C5.84377 19.3251 5.2131 19.325 4.82415 19.7138L0.293686 24.2444C0.0924908 24.4456 -0.00372415 24.7114 0.00314834 24.975C0.00304874 24.9834 0.00195312 24.9916 0.00195312 24.9999C0.00195312 25.0127 0.00334754 25.025 0.00384555 25.0377C-0.00681179 25.3057 0.0890047 25.5772 0.293586 25.7819L4.79766 30.286C4.99218 30.4804 5.24706 30.5777 5.50194 30.5777C5.75682 30.5777 6.0118 30.4804 6.20622 30.286C6.59516 29.897 6.59516 29.2664 6.20622 28.8773L3.32485 25.996H9.73201C10.2257 33.6421 16.3596 39.7759 24.0057 40.2696V43.9699C24.0057 44.5199 24.4516 44.9659 25.0017 44.9659C25.5517 44.9659 25.9977 44.5199 25.9977 43.9699V40.2696C33.6438 39.7759 39.7777 33.6421 40.2714 25.996H46.6785L43.7972 28.8773C43.4082 29.2663 43.4082 29.8969 43.7972 30.286C43.9917 30.4804 44.2466 30.5777 44.5014 30.5777C44.7563 30.5777 45.0112 30.4804 45.2057 30.286L49.7098 25.7819C49.9145 25.5772 50.0104 25.3056 49.9996 25.0375C50.0003 25.0248 50.0017 25.0126 50.0017 24.9999C50.0017 24.9873 50.0004 24.975 49.9999 24.9625ZM24.0059 11.7262V15.0454C19.2832 15.5143 15.5163 19.2812 15.0472 24.004H11.7279C12.2148 17.4565 17.4585 12.2128 24.0059 11.7262ZM24.006 38.2738C17.4585 37.7871 12.2148 32.5434 11.7281 25.996H15.0473C15.5163 30.7187 19.2832 34.4856 24.006 34.9546V38.2738ZM25.0019 30.2036C24.4518 30.2036 24.0059 30.6496 24.0059 31.1996V32.9478C20.3833 32.4963 17.5055 29.6185 17.0539 25.9959H18.8021C19.3522 25.9959 19.7981 25.5498 19.7981 24.9998C19.7981 24.4498 19.3522 24.0038 18.8021 24.0038H17.0539C17.5054 20.3812 20.3832 17.5034 24.0059 17.0519V18.8001C24.0059 19.3501 24.4518 19.7961 25.0019 19.7961C25.5519 19.7961 25.9979 19.3501 25.9979 18.8001V17.0519C29.9471 17.5441 33.0139 20.9194 33.0139 24.9998C33.0139 29.0803 29.9471 32.4556 25.9979 32.9479V31.1997C25.9978 30.6496 25.5519 30.2036 25.0019 30.2036ZM36.7654 25.9959H38.2757C37.789 32.5434 32.5453 37.7871 25.9979 38.2737V34.9545C31.0483 34.453 35.006 30.1801 35.006 24.9998C35.006 19.8196 31.0482 15.5469 25.9978 15.0453V11.7261C32.5452 12.2127 37.7889 17.4564 38.2756 24.0038H36.7653C36.2153 24.0038 35.7693 24.4498 35.7693 24.9998C35.7694 25.5498 36.2153 25.9959 36.7654 25.9959Z" fill="#034F9A"/>
<path d="M28.8789 43.7955L25.0016 47.6729L21.1242 43.7955C20.7353 43.4067 20.1046 43.4067 19.7155 43.7955C19.3266 44.1845 19.3266 44.8152 19.7155 45.2042L24.2196 49.7083C24.4141 49.9027 24.669 50 24.9239 50C24.9498 50 24.9757 49.9983 25.0015 49.9964C25.0273 49.9983 25.0532 50 25.0791 50C25.334 50 25.5888 49.9027 25.7834 49.7083L30.2874 45.2042C30.6764 44.8153 30.6764 44.1846 30.2874 43.7955C29.8985 43.4067 29.268 43.4067 28.8789 43.7955Z" fill="#034F9A"/>
</g>
<defs>
<clipPath id="clip0_1673_117">
<rect width="50" height="50" fill="white"/>
</clipPath>
</defs>
</svg>
