<svg width="230" height="40" viewBox="0 0 230 40" fill="none" xmlns="http://www.w3.org/2000/svg">
<g clip-path="url(#clip0_1673_535)">
<path d="M54.6659 36.2667L52.8262 29.3949H53.7673L54.822 33.8995C54.9355 34.3714 55.0332 34.8401 55.1152 35.3057C55.2917 34.5714 55.3958 34.148 55.4273 34.0355L56.7468 29.3949H57.8534L58.8466 32.8729C59.0957 33.7355 59.2754 34.5464 59.3857 35.3057C59.474 34.8714 59.5891 34.3729 59.731 33.8105L60.8187 29.3949H61.7409L59.8397 36.2667H58.9554L57.494 31.0308C57.3711 30.5933 57.2986 30.3246 57.2764 30.2246C57.2039 30.5402 57.1361 30.8089 57.0731 31.0308L55.6023 36.2667H54.6659ZM65.4108 35.6526C65.0956 35.9183 64.7914 36.1057 64.498 36.2152C64.2081 36.3245 63.8959 36.3792 63.5617 36.3792C63.0099 36.3792 62.5858 36.2464 62.2895 35.9808C61.9932 35.7121 61.845 35.3699 61.845 34.9542C61.845 34.7105 61.9002 34.4886 62.0105 34.2886C62.124 34.0855 62.2706 33.9229 62.4503 33.8011C62.6332 33.6793 62.8381 33.587 63.0651 33.5245C63.2322 33.4808 63.4844 33.4386 63.8218 33.398C64.5091 33.3167 65.0151 33.2198 65.3399 33.1074C65.343 32.9918 65.3446 32.9183 65.3446 32.887C65.3446 32.5433 65.2642 32.3011 65.1034 32.1605C64.8858 31.9698 64.5627 31.8746 64.1339 31.8746C63.7335 31.8746 63.4372 31.9449 63.2448 32.0855C63.0557 32.2229 62.9153 32.4683 62.8239 32.8214L61.9915 32.7089C62.0672 32.3558 62.1917 32.0714 62.3652 31.8558C62.5386 31.637 62.7892 31.4698 63.1171 31.3542C63.4451 31.2355 63.825 31.1761 64.2569 31.1761C64.6857 31.1761 65.0341 31.2261 65.3021 31.3261C65.57 31.4261 65.7671 31.5526 65.8932 31.7058C66.0194 31.8558 66.1076 32.0464 66.1581 32.2777C66.1865 32.4214 66.2006 32.6808 66.2006 33.0558V34.1808C66.2006 34.9652 66.2179 35.4621 66.2527 35.6714C66.2905 35.8777 66.363 36.0761 66.4702 36.2667H65.5811C65.4929 36.0917 65.4361 35.887 65.4108 35.6526ZM65.3399 33.7683C65.0309 33.8933 64.5674 33.9995 63.9495 34.087C63.5995 34.137 63.352 34.1933 63.207 34.2558C63.062 34.3183 62.95 34.4105 62.8712 34.5323C62.7924 34.6511 62.753 34.7839 62.753 34.9308C62.753 35.1558 62.8381 35.3433 63.0084 35.4933C63.1818 35.6433 63.434 35.7183 63.765 35.7183C64.0929 35.7183 64.3846 35.648 64.6399 35.5073C64.8953 35.3636 65.0829 35.1683 65.2027 34.9214C65.2942 34.7308 65.3399 34.4496 65.3399 34.0777V33.7683ZM70.8023 34.4433L71.6393 34.5511C71.5479 35.123 71.313 35.5714 70.9346 35.8965C70.5595 36.2183 70.0976 36.3792 69.549 36.3792C68.8616 36.3792 68.3083 36.1573 67.889 35.7136C67.4729 35.2667 67.2647 34.6277 67.2647 33.7964C67.2647 33.2589 67.3546 32.7886 67.5343 32.3855C67.714 31.9824 67.9867 31.6808 68.3525 31.4808C68.7213 31.2777 69.1218 31.1761 69.5536 31.1761C70.0992 31.1761 70.5453 31.3136 70.892 31.5886C71.239 31.8605 71.4612 32.248 71.559 32.7511L70.7313 32.8777C70.6525 32.5433 70.5121 32.2917 70.3104 32.1229C70.1118 31.9542 69.8705 31.8698 69.5868 31.8698C69.158 31.8698 68.8096 32.0229 68.5416 32.3293C68.2736 32.6324 68.1396 33.1136 68.1396 33.7729C68.1396 34.4417 68.2689 34.9277 68.5274 35.2308C68.786 35.5339 69.1234 35.6855 69.5395 35.6855C69.8737 35.6855 70.1528 35.5839 70.3766 35.3808C70.6005 35.1777 70.7423 34.8652 70.8023 34.4433ZM72.3676 36.2667V29.3949H73.2189V31.8605C73.6162 31.4042 74.1175 31.1761 74.7228 31.1761C75.0949 31.1761 75.418 31.2495 75.6923 31.3964C75.9666 31.5401 76.1621 31.7401 76.2787 31.9964C76.3985 32.2526 76.4585 32.6245 76.4585 33.1121V36.2667H75.6072V33.1121C75.6072 32.6901 75.5142 32.3839 75.3282 32.1933C75.1453 31.9995 74.8852 31.9026 74.5478 31.9026C74.2956 31.9026 74.0576 31.9683 73.8337 32.0995C73.613 32.2277 73.4553 32.4026 73.3608 32.6246C73.2662 32.8464 73.2189 33.1526 73.2189 33.5433V36.2667H72.3676ZM77.4279 34.2042V33.3558H80.0432V34.2042H77.4279ZM84.2759 36.2667V35.5355C83.8854 36.098 83.3535 36.3792 82.6818 36.3792C82.3856 36.3792 82.1084 36.323 81.8497 36.2105C81.5941 36.098 81.4041 35.9573 81.2779 35.7886C81.1549 35.6167 81.0679 35.4073 81.0175 35.1605C80.9832 34.9949 80.9656 34.7323 80.9656 34.3729V31.2886H81.817V34.0495C81.817 34.4901 81.8337 34.787 81.8689 34.9401C81.9224 35.1621 82.0358 35.337 82.2091 35.4652C82.3824 35.5901 82.5972 35.6526 82.8528 35.6526C83.1075 35.6526 83.3471 35.5886 83.5715 35.4605C83.7951 35.3293 83.9524 35.1526 84.0443 34.9308C84.1385 34.7057 84.1864 34.3808 84.1864 33.9558V31.2886H85.0378V36.2667H84.2759ZM86.3754 36.2667V31.2886H87.1421V31.9964C87.511 31.4495 88.0437 31.1761 88.7401 31.1761C89.0428 31.1761 89.3207 31.2308 89.5731 31.3401C89.8278 31.4464 90.0187 31.587 90.1449 31.7621C90.271 31.937 90.3597 32.1449 90.41 32.3855C90.4412 32.5417 90.4571 32.8152 90.4571 33.2058V36.2667H89.6058V33.2386C89.6058 32.8949 89.5731 32.6386 89.5068 32.4698C89.4405 32.298 89.3223 32.1621 89.1522 32.0621C88.9845 31.9589 88.788 31.9074 88.5604 31.9074C88.1979 31.9074 87.8848 32.0214 87.6197 32.2495C87.3577 32.4777 87.2267 32.9105 87.2267 33.548V36.2667H86.3754ZM95.026 36.2667V35.6386C94.7073 36.1323 94.2394 36.3792 93.6212 36.3792C93.2203 36.3792 92.8522 36.2699 92.5144 36.0511C92.1805 35.8323 91.9202 35.5277 91.7341 35.137C91.5512 34.7433 91.4602 34.2917 91.4602 33.7824C91.4602 33.2855 91.5432 32.8355 91.7101 32.4324C91.8779 32.0261 92.1278 31.7152 92.4624 31.4995C92.7963 31.2839 93.17 31.1761 93.5829 31.1761C93.8856 31.1761 94.1555 31.2401 94.3919 31.3683C94.6283 31.4933 94.8207 31.6573 94.9693 31.8605V29.3949H95.8158V36.2667H95.026ZM92.3347 33.7824C92.3347 34.4198 92.4704 34.8965 92.7412 35.2121C93.0127 35.5277 93.3329 35.6855 93.7011 35.6855C94.0732 35.6855 94.3887 35.5355 94.6474 35.2355C94.9094 34.9323 95.0396 34.4714 95.0396 33.8526C95.0396 33.1714 94.9078 32.6714 94.6427 32.3526C94.3775 32.0339 94.0517 31.8746 93.6635 31.8746C93.285 31.8746 92.9688 32.0277 92.7132 32.3339C92.4608 32.6402 92.3347 33.123 92.3347 33.7824ZM99.6843 32.9198C99.6843 31.7793 99.9933 30.887 100.611 30.2433C101.229 29.5964 102.027 29.2729 103.004 29.2729C103.644 29.2729 104.221 29.4246 104.735 29.7277C105.249 30.0308 105.64 30.4542 105.908 30.998C106.179 31.5386 106.314 32.1526 106.314 32.8401C106.314 33.537 106.173 34.1605 105.889 34.7105C105.605 35.2605 105.203 35.6777 104.683 35.9621C104.163 36.2433 103.601 36.3839 102.999 36.3839C102.347 36.3839 101.763 36.2277 101.25 35.9152C100.735 35.6027 100.346 35.1761 100.081 34.6355C99.8168 34.0949 99.6843 33.5229 99.6843 32.9198ZM100.63 32.9339C100.63 33.7621 100.853 34.4152 101.301 34.8933C101.753 35.3683 102.317 35.6057 102.995 35.6057C103.685 35.6057 104.252 35.3652 104.697 34.8839C105.145 34.4027 105.369 33.7198 105.369 32.8355C105.369 32.2761 105.272 31.7886 105.08 31.3729C104.891 30.9542 104.612 30.6308 104.243 30.4026C103.877 30.1714 103.466 30.0558 103.009 30.0558C102.359 30.0558 101.8 30.2777 101.33 30.7214C100.863 31.1621 100.63 31.8995 100.63 32.9339ZM108.178 36.2667H107.388V29.3949H108.239V31.8464C108.598 31.3995 109.058 31.1761 109.616 31.1761C109.925 31.1761 110.216 31.2386 110.49 31.3636C110.767 31.4855 110.995 31.659 111.172 31.8839C111.351 32.1058 111.492 32.3745 111.592 32.6901C111.693 33.0058 111.744 33.3433 111.744 33.7026C111.744 34.5558 111.531 35.2152 111.105 35.6808C110.68 36.1464 110.168 36.3792 109.573 36.3792C108.98 36.3792 108.515 36.1339 108.178 35.6433V36.2667ZM108.168 33.7401C108.168 34.337 108.25 34.7683 108.414 35.0339C108.682 35.4683 109.045 35.6855 109.502 35.6855C109.874 35.6855 110.196 35.5261 110.467 35.2073C110.738 34.8855 110.874 34.4073 110.874 33.7729C110.874 33.1229 110.743 32.6433 110.481 32.3339C110.223 32.0246 109.909 31.8698 109.54 31.8698C109.168 31.8698 108.846 32.0308 108.575 32.3526C108.304 32.6714 108.168 33.1339 108.168 33.7401ZM112.78 30.3746V29.3949H113.631V30.3746H112.78ZM111.701 38.198L111.862 37.4808C112.032 37.5245 112.167 37.5464 112.264 37.5464C112.437 37.5464 112.567 37.4886 112.651 37.3729C112.737 37.2605 112.78 36.9761 112.78 36.5198V31.2886H113.631V36.5386C113.631 37.1511 113.551 37.5777 113.389 37.8183C113.185 38.1308 112.845 38.287 112.368 38.287C112.138 38.287 111.916 38.2573 111.701 38.198ZM118.379 34.6636L119.259 34.7714C119.12 35.2808 118.863 35.6761 118.488 35.9573C118.112 36.2386 117.633 36.3792 117.05 36.3792C116.315 36.3792 115.732 36.1558 115.3 35.7089C114.871 35.2589 114.657 34.6293 114.657 33.8198C114.657 32.9824 114.875 32.3324 115.31 31.8698C115.744 31.4073 116.309 31.1761 117.002 31.1761C117.674 31.1761 118.223 31.4026 118.649 31.8558C119.075 32.3089 119.287 32.9464 119.287 33.7683C119.287 33.8183 119.285 33.8933 119.282 33.9933H115.537C115.568 34.5401 115.724 34.9589 116.005 35.2496C116.285 35.5401 116.636 35.6855 117.055 35.6855C117.367 35.6855 117.633 35.6042 117.853 35.4417C118.075 35.2792 118.25 35.0198 118.379 34.6636ZM115.584 33.2995H118.388C118.35 32.8808 118.243 32.5667 118.067 32.3574C117.796 32.0324 117.445 31.8698 117.013 31.8698C116.621 31.8698 116.291 31.9995 116.024 32.2589C115.759 32.5183 115.612 32.8652 115.584 33.2995ZM120.337 36.2667V29.3949H121.188V33.3136L123.203 31.2886H124.305L122.385 33.1355L124.499 36.2667H123.449L121.789 33.7214L121.188 34.2933V36.2667H120.337ZM127.034 35.5121L127.157 36.2573C126.917 36.3073 126.703 36.3323 126.514 36.3323C126.205 36.3323 125.965 36.2839 125.794 36.187C125.624 36.0901 125.504 35.9636 125.435 35.8073C125.365 35.648 125.331 35.3152 125.331 34.8089V31.9449H124.707V31.2886H125.331V30.0558L126.177 29.5495V31.2886H127.034V31.9449H126.177V34.8558C126.177 35.0965 126.192 35.2511 126.22 35.3198C126.252 35.3886 126.3 35.4433 126.367 35.4839C126.436 35.5245 126.534 35.5449 126.66 35.5449C126.754 35.5449 126.879 35.5339 127.034 35.5121ZM127.53 34.7808L128.372 34.6496C128.419 34.9839 128.55 35.2401 128.765 35.4183C128.982 35.5965 129.285 35.6855 129.672 35.6855C130.063 35.6855 130.353 35.6073 130.543 35.4511C130.732 35.2917 130.827 35.1057 130.827 34.8933C130.827 34.7027 130.742 34.5526 130.576 34.4433C130.459 34.3683 130.169 34.273 129.706 34.1574C129.082 34.0011 128.648 33.8667 128.406 33.7542C128.165 33.6386 127.983 33.4808 127.856 33.2808C127.734 33.0777 127.672 32.8542 127.672 32.6105C127.672 32.3886 127.723 32.1839 127.823 31.9964C127.927 31.8058 128.068 31.648 128.244 31.5229C128.377 31.4261 128.556 31.3449 128.783 31.2793C129.014 31.2105 129.26 31.1761 129.521 31.1761C129.915 31.1761 130.261 31.2324 130.557 31.3449C130.856 31.4573 131.078 31.6105 131.219 31.8042C131.361 31.9949 131.459 32.2511 131.512 32.5729L130.68 32.6855C130.642 32.4293 130.531 32.2293 130.349 32.0855C130.169 31.9417 129.913 31.8698 129.583 31.8698C129.192 31.8698 128.913 31.9339 128.746 32.0621C128.579 32.1901 128.495 32.3401 128.495 32.5121C128.495 32.6214 128.529 32.7198 128.599 32.8074C128.668 32.898 128.777 32.973 128.925 33.0324C129.011 33.0636 129.262 33.1355 129.677 33.248C130.279 33.4073 130.698 33.5386 130.936 33.6417C131.175 33.7417 131.363 33.8886 131.498 34.0824C131.634 34.2761 131.701 34.5168 131.701 34.8042C131.701 35.0855 131.618 35.3511 131.451 35.6011C131.287 35.848 131.049 36.0401 130.737 36.1777C130.424 36.3121 130.071 36.3792 129.677 36.3792C129.024 36.3792 128.526 36.2449 128.183 35.9761C127.843 35.7073 127.625 35.3089 127.53 34.7808ZM132.146 36.2667L133.981 33.6793L132.284 31.2886H133.347L134.118 32.4558C134.263 32.6777 134.38 32.8636 134.468 33.0136C134.607 32.8073 134.735 32.6246 134.851 32.4652L135.698 31.2886H136.714L134.979 33.6324L136.847 36.2667H135.801L134.77 34.7198L134.497 34.3027L133.177 36.2667H132.146ZM137.557 36.2667V29.3949H138.407V31.8605C138.805 31.4042 139.307 31.1761 139.912 31.1761C140.283 31.1761 140.607 31.2495 140.881 31.3964C141.155 31.5401 141.35 31.7401 141.468 31.9964C141.587 32.2526 141.647 32.6245 141.647 33.1121V36.2667H140.796V33.1121C140.796 32.6901 140.703 32.3839 140.517 32.1933C140.334 31.9995 140.073 31.9026 139.736 31.9026C139.485 31.9026 139.246 31.9683 139.022 32.0995C138.802 32.2277 138.644 32.4026 138.549 32.6246C138.454 32.8464 138.407 33.1526 138.407 33.5433V36.2667H137.557ZM146.239 36.2667V35.5355C145.849 36.098 145.317 36.3792 144.645 36.3792C144.349 36.3792 144.072 36.323 143.813 36.2105C143.558 36.098 143.367 35.9573 143.241 35.7886C143.118 35.6167 143.031 35.4073 142.981 35.1605C142.946 34.9949 142.929 34.7323 142.929 34.3729V31.2886H143.78V34.0495C143.78 34.4901 143.797 34.787 143.832 34.9401C143.886 35.1621 143.999 35.337 144.173 35.4652C144.346 35.5901 144.56 35.6526 144.816 35.6526C145.071 35.6526 145.311 35.5886 145.535 35.4605C145.759 35.3293 145.916 35.1526 146.008 34.9308C146.102 34.7057 146.149 34.3808 146.149 33.9558V31.2886H147V36.2667H146.239ZM150.198 35.5121L150.32 36.2573C150.081 36.3073 149.867 36.3323 149.677 36.3323C149.368 36.3323 149.129 36.2839 148.959 36.187C148.788 36.0901 148.669 35.9636 148.599 35.8073C148.53 35.648 148.495 35.3152 148.495 34.8089V31.9449H147.871V31.2886H148.495V30.0558L149.342 29.5495V31.2886H150.198V31.9449H149.342V34.8558C149.342 35.0965 149.355 35.2511 149.384 35.3198C149.416 35.3886 149.464 35.4433 149.53 35.4839C149.6 35.5245 149.698 35.5449 149.823 35.5449C149.919 35.5449 150.043 35.5339 150.198 35.5121ZM150.585 36.2667V35.5824L153.782 31.9449C153.42 31.9636 153.099 31.9729 152.822 31.9729H150.775V31.2886H154.879V31.8464L152.16 35.0057L151.636 35.5824C152.017 35.5542 152.375 35.5401 152.709 35.5401H155.031V36.2667H150.585ZM161.926 33.5714V32.7652L164.864 32.7605V35.3105C164.413 35.6667 163.947 35.9355 163.468 36.1168C162.989 36.2949 162.497 36.3839 161.993 36.3839C161.312 36.3839 160.692 36.2401 160.134 35.9526C159.579 35.6621 159.159 35.2433 158.876 34.6965C158.592 34.1496 158.45 33.5386 158.45 32.8636C158.45 32.1949 158.591 31.5714 158.871 30.9933C159.154 30.4121 159.562 29.9808 160.091 29.6995C160.621 29.4183 161.232 29.2777 161.922 29.2777C162.422 29.2777 162.875 29.3589 163.278 29.5214C163.686 29.6808 164.004 29.9042 164.234 30.1918C164.464 30.4793 164.639 30.8542 164.759 31.3167L163.932 31.5418C163.828 31.1918 163.699 30.9167 163.544 30.7167C163.389 30.5167 163.168 30.3573 162.882 30.2386C162.595 30.1167 162.276 30.0558 161.926 30.0558C161.507 30.0558 161.144 30.1198 160.839 30.248C160.533 30.3729 160.285 30.5386 160.096 30.7449C159.91 30.9511 159.765 31.1777 159.661 31.4246C159.484 31.8495 159.396 32.3105 159.396 32.8074C159.396 33.4198 159.502 33.9324 159.713 34.3449C159.928 34.7573 160.238 35.0636 160.645 35.2636C161.052 35.4636 161.483 35.5636 161.941 35.5636C162.338 35.5636 162.726 35.4886 163.104 35.3386C163.482 35.1855 163.769 35.023 163.964 34.8511V33.5714H161.926ZM166.112 36.2667V31.2886H166.873V31.987C167.031 31.7433 167.24 31.548 167.502 31.4011C167.763 31.2511 168.062 31.1761 168.396 31.1761C168.768 31.1761 169.072 31.2526 169.309 31.4058C169.548 31.5589 169.717 31.7729 169.815 32.048C170.212 31.4667 170.729 31.1761 171.366 31.1761C171.864 31.1761 172.247 31.3136 172.515 31.5886C172.783 31.8605 172.917 32.2808 172.917 32.8495V36.2667H172.07V33.1308C172.07 32.7933 172.042 32.5511 171.986 32.4042C171.931 32.2542 171.832 32.1339 171.687 32.0433C171.543 31.9526 171.372 31.9074 171.177 31.9074C170.824 31.9074 170.531 32.0245 170.297 32.2589C170.064 32.4901 169.947 32.8621 169.947 33.3746V36.2667H169.096V33.0324C169.096 32.6574 169.027 32.3761 168.888 32.1886C168.749 32.0011 168.522 31.9074 168.207 31.9074C167.967 31.9074 167.745 31.9698 167.54 32.0949C167.338 32.2198 167.192 32.4026 167.1 32.6433C167.009 32.8839 166.963 33.2308 166.963 33.6839V36.2667H166.112ZM174.965 36.2667H174.175V29.3949H175.026V31.8464C175.385 31.3995 175.845 31.1761 176.403 31.1761C176.712 31.1761 177.003 31.2386 177.277 31.3636C177.555 31.4855 177.782 31.659 177.959 31.8839C178.138 32.1058 178.279 32.3745 178.379 32.6901C178.48 33.0058 178.531 33.3433 178.531 33.7026C178.531 34.5558 178.318 35.2152 177.892 35.6808C177.467 36.1464 176.955 36.3792 176.361 36.3792C175.767 36.3792 175.302 36.1339 174.965 35.6433V36.2667ZM174.955 33.7401C174.955 34.337 175.037 34.7683 175.202 35.0339C175.469 35.4683 175.832 35.6855 176.289 35.6855C176.661 35.6855 176.983 35.5261 177.254 35.2073C177.525 34.8855 177.661 34.4073 177.661 33.7729C177.661 33.1229 177.53 32.6433 177.268 32.3339C177.01 32.0246 176.696 31.8698 176.327 31.8698C175.955 31.8698 175.633 32.0308 175.362 32.3526C175.091 32.6714 174.955 33.1339 174.955 33.7401ZM179.708 36.2667V29.3949H180.626V32.2167H184.23V29.3949H185.147V36.2667H184.23V33.0277H180.626V36.2667H179.708ZM193.23 35.4558C192.949 35.7652 192.643 35.998 192.312 36.1542C191.981 36.3073 191.623 36.3839 191.239 36.3839C190.529 36.3839 189.966 36.1464 189.55 35.6714C189.213 35.2839 189.044 34.8511 189.044 34.3729C189.044 33.948 189.181 33.5652 189.455 33.2246C189.732 32.8808 190.146 32.5793 190.694 32.3198C190.383 31.9636 190.175 31.6745 190.07 31.4526C189.966 31.2308 189.914 31.0167 189.914 30.8105C189.914 30.398 190.077 30.0401 190.402 29.737C190.729 29.4308 191.141 29.2777 191.636 29.2777C192.108 29.2777 192.495 29.4214 192.794 29.709C193.097 29.9964 193.249 30.3417 193.249 30.7449C193.249 31.398 192.812 31.9558 191.938 32.4183L193.182 33.9886C193.324 33.7136 193.434 33.3949 193.513 33.0324L194.397 33.2198C194.246 33.8198 194.041 34.3136 193.783 34.7011C194.102 35.1198 194.462 35.4714 194.866 35.7558L194.293 36.4261C193.95 36.2073 193.595 35.8839 193.23 35.4558ZM191.499 31.8746C191.867 31.659 192.106 31.4698 192.213 31.3074C192.323 31.1449 192.378 30.9652 192.378 30.7683C192.378 30.5339 192.302 30.3433 192.151 30.1964C192.003 30.0464 191.817 29.9714 191.593 29.9714C191.363 29.9714 191.171 30.0449 191.016 30.1918C190.865 30.3386 190.789 30.5183 190.789 30.7308C190.789 30.837 190.816 30.9495 190.87 31.0683C190.926 31.1839 191.009 31.3073 191.12 31.4386L191.499 31.8746ZM192.695 34.7901L191.135 32.8729C190.674 33.1449 190.363 33.398 190.203 33.6324C190.042 33.8636 189.962 34.0933 189.962 34.3214C189.962 34.5995 190.073 34.8886 190.297 35.1886C190.521 35.4886 190.838 35.6386 191.248 35.6386C191.503 35.6386 191.767 35.5605 192.038 35.4042C192.312 35.2449 192.532 35.0401 192.695 34.7901ZM203.477 33.8574L204.395 34.087C204.203 34.8339 203.856 35.4042 203.355 35.798C202.857 36.1886 202.247 36.3839 201.525 36.3839C200.777 36.3839 200.169 36.2339 199.699 35.9339C199.233 35.6308 198.877 35.1933 198.631 34.6214C198.387 34.0495 198.266 33.4355 198.266 32.7793C198.266 32.0636 198.404 31.4402 198.678 30.909C198.955 30.3746 199.348 29.9698 199.856 29.6949C200.366 29.4167 200.927 29.2777 201.539 29.2777C202.232 29.2777 202.816 29.4526 203.289 29.8026C203.762 30.1526 204.092 30.6449 204.278 31.2793L203.374 31.4901C203.213 30.9901 202.98 30.6261 202.674 30.398C202.368 30.1698 201.983 30.0558 201.52 30.0558C200.987 30.0558 200.541 30.1824 200.182 30.4355C199.825 30.6886 199.575 31.0293 199.43 31.4574C199.285 31.8824 199.212 32.3214 199.212 32.7746C199.212 33.359 199.297 33.8698 199.468 34.3074C199.641 34.7418 199.908 35.0667 200.271 35.2824C200.634 35.498 201.026 35.6057 201.449 35.6057C201.963 35.6057 202.398 35.459 202.755 35.1652C203.111 34.8714 203.352 34.4355 203.477 33.8574ZM205.105 33.7777C205.105 32.8558 205.363 32.1729 205.88 31.7293C206.312 31.3605 206.839 31.1761 207.46 31.1761C208.151 31.1761 208.715 31.4011 209.153 31.8511C209.592 32.298 209.81 32.9167 209.81 33.7074C209.81 34.348 209.713 34.8526 209.517 35.2214C209.325 35.587 209.043 35.8714 208.671 36.0745C208.302 36.2777 207.898 36.3792 207.46 36.3792C206.756 36.3792 206.188 36.1558 205.753 35.7089C205.321 35.2621 205.105 34.6183 205.105 33.7777ZM205.979 33.7777C205.979 34.4152 206.12 34.8933 206.4 35.2121C206.681 35.5277 207.034 35.6855 207.46 35.6855C207.883 35.6855 208.234 35.5261 208.515 35.2073C208.795 34.8886 208.936 34.4027 208.936 33.7495C208.936 33.1339 208.794 32.6683 208.51 32.3526C208.229 32.0339 207.879 31.8746 207.46 31.8746C207.034 31.8746 206.681 32.0324 206.4 32.348C206.12 32.6636 205.979 33.1401 205.979 33.7777ZM211.054 36.2667V35.3057H212.023V36.2667H211.054ZM216.276 36.2667V29.3949H217.193V32.8026L220.636 29.3949H221.88L218.971 32.1793L222.008 36.2667H220.797L218.328 32.7886L217.193 33.8855V36.2667H216.276ZM226.017 33.5714V32.7652L228.955 32.7605V35.3105C228.503 35.6667 228.039 35.9355 227.559 36.1168C227.08 36.2949 226.588 36.3839 226.084 36.3839C225.402 36.3839 224.784 36.2401 224.225 35.9526C223.67 35.6621 223.251 35.2433 222.967 34.6965C222.684 34.1496 222.542 33.5386 222.542 32.8636C222.542 32.1949 222.682 31.5714 222.963 30.9933C223.246 30.4121 223.653 29.9808 224.183 29.6995C224.712 29.4183 225.323 29.2777 226.013 29.2777C226.514 29.2777 226.967 29.3589 227.37 29.5214C227.778 29.6808 228.095 29.9042 228.325 30.1918C228.556 30.4793 228.731 30.8542 228.851 31.3167L228.023 31.5418C227.919 31.1918 227.789 30.9167 227.635 30.7167C227.48 30.5167 227.26 30.3573 226.973 30.2386C226.686 30.1167 226.367 30.0558 226.017 30.0558C225.599 30.0558 225.236 30.1198 224.93 30.248C224.624 30.3729 224.376 30.5386 224.188 30.7449C224.002 30.9511 223.856 31.1777 223.753 31.4246C223.576 31.8495 223.487 32.3105 223.487 32.8074C223.487 33.4198 223.593 33.9324 223.804 34.3449C224.018 34.7573 224.329 35.0636 224.736 35.2636C225.143 35.4636 225.575 35.5636 226.032 35.5636C226.429 35.5636 226.817 35.4886 227.195 35.3386C227.574 35.1855 227.861 35.023 228.056 34.8511V33.5714H226.017Z" fill="#848484"/>
<path d="M53.0938 17.0285V2.30311H54.989V8.34999H62.4333V2.30311H64.3286V17.0285H62.4333V10.0877H54.989V17.0285H53.0938ZM74.0395 15.7127C73.3882 16.2819 72.7596 16.6837 72.154 16.9181C71.5548 17.1525 70.91 17.2697 70.2196 17.2697C69.0799 17.2697 68.2039 16.985 67.5917 16.4158C66.9794 15.8399 66.6733 15.1067 66.6733 14.2161C66.6733 13.6937 66.7873 13.2183 67.0152 12.7897C67.2497 12.3545 67.5526 12.0062 67.9238 11.7451C68.3015 11.4839 68.7249 11.2864 69.1938 11.1525C69.539 11.0587 70.0601 10.9683 70.757 10.8813C72.1768 10.7071 73.2221 10.4995 73.8929 10.2585C73.8994 10.0107 73.9028 9.85335 73.9028 9.78639C73.9028 9.04975 73.7366 8.53079 73.4045 8.22951C72.955 7.82096 72.2875 7.61673 71.4018 7.61673C70.5746 7.61673 69.9623 7.76742 69.5651 8.06871C69.1743 8.36335 68.8844 8.88911 68.6956 9.64575L66.9762 9.40471C67.1325 8.64799 67.3897 8.03863 67.7479 7.57656C68.1062 7.1078 68.6239 6.74955 69.3013 6.50177C69.9786 6.24731 70.7634 6.12008 71.6557 6.12008C72.5415 6.12008 73.2612 6.22723 73.8148 6.44151C74.3684 6.65579 74.7755 6.927 75.0359 7.25512C75.2965 7.57656 75.4788 7.98502 75.583 8.48055C75.6417 8.78863 75.671 9.34439 75.671 10.148V12.5587C75.671 14.2395 75.7068 15.3042 75.7785 15.7529C75.8566 16.1949 76.0064 16.6201 76.2278 17.0285H74.3912C74.2088 16.6536 74.0915 16.2149 74.0395 15.7127ZM73.8929 11.6748C73.2547 11.9426 72.2972 12.1703 71.0207 12.3578C70.2977 12.4649 69.7865 12.5855 69.4869 12.7194C69.1873 12.8533 68.9561 13.0509 68.7932 13.3121C68.6304 13.5665 68.549 13.8511 68.549 14.1658C68.549 14.648 68.7249 15.0497 69.0766 15.3712C69.4348 15.6926 69.9559 15.8533 70.6397 15.8533C71.317 15.8533 71.9195 15.7027 72.4471 15.4013C72.9746 15.0933 73.3621 14.6748 73.6096 14.1457C73.7985 13.7373 73.8929 13.1345 73.8929 12.3377V11.6748ZM85.2063 17.0285V15.4616C84.3981 16.6669 83.3008 17.2697 81.9136 17.2697C81.3011 17.2697 80.7285 17.1491 80.1942 16.9081C79.6667 16.6669 79.2726 16.3656 79.0121 16.004C78.7582 15.6357 78.579 15.187 78.4748 14.6581C78.4032 14.3031 78.3674 13.7406 78.3674 12.9705V6.36115H80.1255V12.2774C80.1255 13.2217 80.1615 13.8578 80.2334 14.1859C80.3444 14.6613 80.5784 15.0364 80.9369 15.3109C81.2947 15.5788 81.7379 15.7127 82.265 15.7127C82.7929 15.7127 83.288 15.5754 83.7504 15.3009C84.2128 15.0197 84.5387 14.6413 84.7271 14.1658C84.9228 13.6837 85.0202 12.9873 85.0202 12.0765V6.36115H86.7788V17.0285H85.2063ZM88.84 13.8444L90.5794 13.5631C90.6768 14.2797 90.9475 14.8288 91.3899 15.2105C91.8396 15.5921 92.4649 15.783 93.2659 15.783C94.0733 15.783 94.6722 15.6156 95.0636 15.2808C95.4541 14.9393 95.6497 14.5409 95.6497 14.0855C95.6497 13.677 95.4772 13.3556 95.1314 13.1212C94.8911 12.9605 94.2913 12.7562 93.3346 12.5085C92.0448 12.1737 91.1488 11.8857 90.6472 11.6446C90.1529 11.3969 89.7752 11.0587 89.514 10.6301C89.26 10.1949 89.1331 9.71607 89.1331 9.19375C89.1331 8.71831 89.2377 8.27967 89.4461 7.87787C89.661 7.46942 89.9508 7.13124 90.315 6.86339C90.5889 6.65579 90.9603 6.48169 91.4291 6.34107C91.9043 6.19374 92.413 6.12008 92.9528 6.12008C93.7674 6.12008 94.4806 6.24061 95.0923 6.48169C95.7112 6.72275 96.1672 7.05088 96.4603 7.46605C96.7534 7.87456 96.9555 8.42367 97.0657 9.11335L95.3471 9.35447C95.2688 8.80535 95.0404 8.37679 94.6627 8.06871C94.2913 7.76067 93.7642 7.60667 93.0798 7.60667C92.2724 7.60667 91.6958 7.74399 91.3508 8.01847C91.0058 8.29311 90.8333 8.61447 90.8333 8.98279C90.8333 9.21719 90.9052 9.42807 91.0481 9.61559C91.1911 9.80983 91.4163 9.97047 91.7222 10.0977C91.8979 10.1647 92.4162 10.3187 93.2755 10.5598C94.5197 10.9013 95.3854 11.1825 95.8741 11.4035C96.3693 11.6178 96.7566 11.9325 97.0369 12.3477C97.3172 12.7629 97.457 13.2785 97.457 13.8946C97.457 14.4973 97.2845 15.0665 96.9387 15.6022C96.6001 16.1313 96.1089 16.5431 95.4637 16.8377C94.8192 17.1257 94.0892 17.2697 93.2755 17.2697C91.9274 17.2697 90.898 16.9817 90.188 16.4058C89.4853 15.8299 89.0356 14.9761 88.84 13.8444ZM106.318 13.1212L108.047 13.3522C107.858 14.5777 107.373 15.5386 106.592 16.235C105.816 16.9248 104.862 17.2697 103.728 17.2697C102.309 17.2697 101.166 16.7941 100.3 15.8433C99.4399 14.8857 99.0103 13.5163 99.0103 11.735C99.0103 10.5833 99.1956 9.57543 99.5669 8.71159C99.9383 7.84776 100.501 7.20155 101.257 6.77298C102.019 6.33771 102.846 6.12008 103.739 6.12008C104.866 6.12008 105.787 6.41472 106.504 7.00401C107.22 7.58662 107.679 8.41695 107.88 9.49511L106.171 9.76631C106.009 9.04975 105.719 8.51071 105.302 8.14911C104.891 7.78747 104.393 7.60667 103.807 7.60667C102.921 7.60667 102.202 7.93479 101.648 8.59111C101.095 9.24063 100.818 10.2719 100.818 11.6848C100.818 13.1178 101.084 14.1591 101.619 14.8087C102.153 15.4583 102.85 15.783 103.709 15.783C104.399 15.783 104.976 15.5654 105.438 15.1301C105.901 14.6949 106.194 14.0252 106.318 13.1212ZM109.551 17.0285V2.30311H111.31V7.58662C112.131 6.60892 113.166 6.12008 114.416 6.12008C115.185 6.12008 115.852 6.27745 116.419 6.59218C116.985 6.90021 117.39 7.32879 117.631 7.87787C117.878 8.42703 118.002 9.22391 118.002 10.2685V17.0285H116.244V10.2685C116.244 9.36447 116.052 8.70831 115.667 8.29975C115.29 7.88456 114.753 7.67702 114.055 7.67702C113.534 7.67702 113.043 7.81765 112.58 8.09887C112.124 8.37343 111.798 8.74847 111.603 9.22391C111.407 9.69927 111.31 10.3556 111.31 11.1926V17.0285H109.551ZM120.698 4.38235V2.30311H122.457V4.38235H120.698ZM120.698 17.0285V6.36115H122.457V17.0285H120.698ZM125.105 17.0285V2.30311H126.863V17.0285H125.105ZM136.329 17.0285V15.6825C135.671 16.7406 134.704 17.2697 133.428 17.2697C132.601 17.2697 131.839 17.0353 131.142 16.5665C130.452 16.0977 129.914 15.4449 129.53 14.6078C129.152 13.7641 128.963 12.7965 128.963 11.7049C128.963 10.6401 129.136 9.67591 129.481 8.81207C129.826 7.94154 130.344 7.27521 131.035 6.81316C131.725 6.35111 132.496 6.12008 133.35 6.12008C133.975 6.12008 134.533 6.25735 135.02 6.53191C135.508 6.79977 135.906 7.15133 136.212 7.58662V2.30311H137.961V17.0285H136.329ZM130.771 11.7049C130.771 13.0709 131.051 14.0921 131.611 14.7685C132.171 15.4449 132.832 15.783 133.594 15.783C134.362 15.783 135.014 15.4616 135.548 14.8187C136.088 14.1692 136.359 13.1815 136.359 11.8556C136.359 10.3957 136.086 9.32431 135.538 8.64127C134.991 7.95827 134.317 7.61673 133.516 7.61673C132.734 7.61673 132.079 7.94485 131.552 8.60111C131.031 9.25735 130.771 10.2919 130.771 11.7049ZM144.575 15.4113L144.829 17.0085C144.334 17.1156 143.891 17.1692 143.5 17.1692C142.862 17.1692 142.367 17.0654 142.015 16.8578C141.664 16.6502 141.416 16.379 141.273 16.0441C141.13 15.7027 141.058 14.9895 141.058 13.9047V7.76742H139.768V6.36115H141.058V3.71941L142.806 2.63459V6.36115H144.575V7.76742H142.806V14.0051C142.806 14.5207 142.836 14.8522 142.894 14.9995C142.96 15.1469 143.06 15.2641 143.197 15.3511C143.34 15.4381 143.543 15.4817 143.803 15.4817C143.998 15.4817 144.256 15.4583 144.575 15.4113ZM160.059 15.2909C159.48 15.9537 158.849 16.4527 158.164 16.7875C157.481 17.1156 156.741 17.2797 155.946 17.2797C154.481 17.2797 153.318 16.7707 152.459 15.7529C151.763 14.9225 151.414 13.9951 151.414 12.9705C151.414 12.0598 151.696 11.2395 152.263 10.5096C152.837 9.77295 153.69 9.12679 154.823 8.57095C154.178 7.80759 153.749 7.18816 153.534 6.71271C153.318 6.23727 153.211 5.77856 153.211 5.33659C153.211 4.45267 153.547 3.68593 154.217 3.03637C154.895 2.38012 155.745 2.052 156.767 2.052C157.744 2.052 158.542 2.36003 159.161 2.97611C159.786 3.59218 160.098 4.33213 160.098 5.19597C160.098 6.59553 159.197 7.79085 157.392 8.78191L159.962 12.1469C160.255 11.5576 160.483 10.8745 160.646 10.0977L162.473 10.4995C162.16 11.7853 161.736 12.8433 161.203 13.6737C161.86 14.5709 162.606 15.3243 163.44 15.9337L162.257 17.3701C161.548 16.9013 160.816 16.2083 160.059 15.2909ZM156.484 7.61673C157.246 7.15467 157.738 6.74955 157.959 6.40133C158.187 6.05311 158.301 5.66807 158.301 5.24619C158.301 4.74396 158.145 4.33548 157.832 4.02075C157.526 3.69932 157.141 3.53861 156.679 3.53861C156.204 3.53861 155.807 3.69597 155.487 4.01071C155.175 4.32543 155.018 4.71048 155.018 5.16583C155.018 5.39351 155.074 5.63459 155.185 5.88905C155.302 6.13682 155.474 6.40133 155.702 6.68258L156.484 7.61673ZM158.956 13.8645L155.732 9.75623C154.781 10.3389 154.139 10.8813 153.807 11.3835C153.475 11.879 153.309 12.3712 153.309 12.8601C153.309 13.456 153.54 14.0754 154.003 14.7183C154.465 15.3611 155.12 15.6825 155.966 15.6825C156.494 15.6825 157.037 15.5152 157.598 15.1803C158.164 14.8389 158.617 14.4002 158.956 13.8645ZM170.933 17.0285V2.30311H176.306C177.4 2.30311 178.276 2.45379 178.934 2.75512C179.598 3.04977 180.116 3.50847 180.487 4.13124C180.866 4.74731 181.054 5.39351 181.054 6.06986C181.054 6.69932 180.888 7.29195 180.556 7.84776C180.224 8.40351 179.722 8.85223 179.051 9.19375C179.918 9.45487 180.582 9.90023 181.044 10.5297C181.513 11.1591 181.748 11.9025 181.748 12.7596C181.748 13.4493 181.604 14.0921 181.318 14.6881C181.037 15.2774 180.689 15.7328 180.272 16.0542C179.855 16.3757 179.331 16.6201 178.7 16.7875C178.074 16.9482 177.306 17.0285 176.394 17.0285H170.933ZM172.828 8.49063H175.925C176.765 8.49063 177.368 8.43367 177.733 8.31991C178.214 8.17255 178.576 7.92811 178.817 7.58662C179.065 7.24508 179.188 6.81651 179.188 6.30088C179.188 5.81204 179.074 5.38347 178.846 5.01517C178.618 4.64017 178.292 4.38571 177.869 4.25177C177.446 4.11115 176.72 4.04083 175.691 4.04083H172.828V8.49063ZM172.828 15.2909H176.394C177.006 15.2909 177.436 15.2674 177.684 15.2205C178.12 15.1401 178.485 15.0062 178.778 14.8187C179.071 14.6313 179.312 14.3601 179.501 14.0051C179.69 13.6435 179.783 13.2283 179.783 12.7596C179.783 12.2105 179.647 11.735 179.374 11.3333C179.1 10.9248 178.719 10.6401 178.231 10.4795C177.749 10.3121 177.051 10.2283 176.14 10.2283H172.828V15.2909ZM184.092 17.0285V2.30311H185.85V17.0285H184.092ZM195.386 17.0285V15.4616C194.578 16.6669 193.48 17.2697 192.093 17.2697C191.481 17.2697 190.908 17.1491 190.374 16.9081C189.847 16.6669 189.452 16.3656 189.192 16.004C188.938 15.6357 188.759 15.187 188.654 14.6581C188.583 14.3031 188.547 13.7406 188.547 12.9705V6.36115H190.306V12.2774C190.306 13.2217 190.342 13.8578 190.413 14.1859C190.524 14.6613 190.759 15.0364 191.117 15.3109C191.475 15.5788 191.918 15.7127 192.445 15.7127C192.972 15.7127 193.468 15.5754 193.93 15.3009C194.393 15.0197 194.718 14.6413 194.907 14.1658C195.102 13.6837 195.201 12.9873 195.201 12.0765V6.36115H196.959V17.0285H195.386ZM199.723 17.0285V6.36115H201.306V7.87787C202.068 6.70602 203.169 6.12008 204.608 6.12008C205.234 6.12008 205.807 6.23727 206.328 6.47164C206.855 6.69932 207.249 7.00066 207.51 7.37565C207.77 7.75067 207.953 8.19599 208.057 8.71159C208.122 9.04639 208.154 9.63231 208.154 10.4694V17.0285H206.396V10.5397C206.396 9.80311 206.328 9.25399 206.191 8.89239C206.054 8.52407 205.81 8.23279 205.458 8.01847C205.113 7.79753 204.706 7.68702 204.237 7.68702C203.488 7.68702 202.84 7.93147 202.292 8.42031C201.752 8.90911 201.482 9.83663 201.482 11.2027V17.0285H199.723ZM217.631 13.1212L219.36 13.3522C219.172 14.5777 218.686 15.5386 217.904 16.235C217.13 16.9248 216.175 17.2697 215.042 17.2697C213.622 17.2697 212.479 16.7941 211.613 15.8433C210.753 14.8857 210.323 13.5163 210.323 11.735C210.323 10.5833 210.509 9.57543 210.881 8.71159C211.252 7.84776 211.815 7.20155 212.57 6.77298C213.332 6.33771 214.16 6.12008 215.052 6.12008C216.179 6.12008 217.1 6.41472 217.816 7.00401C218.533 7.58662 218.992 8.41695 219.194 9.49511L217.484 9.76631C217.322 9.04975 217.031 8.51071 216.615 8.14911C216.205 7.78747 215.707 7.60667 215.12 7.60667C214.235 7.60667 213.515 7.93479 212.961 8.59111C212.407 9.24063 212.131 10.2719 212.131 11.6848C212.131 13.1178 212.398 14.1591 212.931 14.8087C213.466 15.4583 214.163 15.783 215.023 15.783C215.713 15.783 216.29 15.5654 216.752 15.1301C217.214 14.6949 217.507 14.0252 217.631 13.1212ZM220.874 17.0285V2.30311H222.633V10.7005L226.794 6.36115H229.07L225.105 10.3187L229.471 17.0285H227.302L223.874 11.5743L222.633 12.7997V17.0285H220.874Z" fill="#034F9A"/>
<path fill-rule="evenodd" clip-rule="evenodd" d="M0.320396 40.0143C2.44758 40.0143 1.79446 40.1358 2.19161 38.1757C2.29077 37.6862 2.35388 37.7291 2.44209 37.1887L3.18249 32.8838C3.2462 32.5219 3.35551 32.2032 3.41908 31.7878L3.99826 28.6545C4.1222 28.1478 4.02622 28.0673 4.28307 27.0354C4.41704 26.4973 4.3926 25.9767 4.54389 25.3923C4.8057 24.381 4.77231 24.1086 4.97178 23.2501C5.06618 22.8438 5.01956 22.5477 5.09744 22.1381C5.15408 21.84 5.3115 21.6218 5.35046 21.1538L5.75401 18.9871C5.91751 18.6282 7.22653 18.7798 8.01783 18.7798H15.6203C17.7496 18.781 17.0961 18.8762 17.5935 16.9464C17.6824 16.6012 17.8936 16.0183 17.4259 16.0183H4.59678C4.04485 16.0183 4.25058 17.1112 3.9637 18.0502L3.43038 21.1342C3.38604 21.3746 3.29075 21.563 3.22384 21.8795L1.85582 29.5548C1.72413 30.8355 1.61574 30.5396 1.56064 31.0683L0.772288 35.706C0.7084 35.9636 0.65594 36.0613 0.607769 36.3981C0.434705 37.6089 0.343356 37.583 0.211572 38.7626C0.158689 39.2359 -0.297247 40.0143 0.320396 40.0143Z" fill="#034F9A"/>
<path fill-rule="evenodd" clip-rule="evenodd" d="M19.8018 40.0143H21.0371C21.6414 40.0143 21.5565 38.5381 21.6985 38.0109C21.8301 37.5227 21.8415 37.5211 21.9196 36.8992C22.0444 35.904 22.9377 31.9434 22.9377 31.2539C23.4353 31.1377 24.5286 31.2263 24.7982 31.2137C25.2659 31.1919 25.0134 31.2539 25.4085 31.2539C25.8433 31.2539 25.8398 31.1678 26.1598 31.1775L27.9521 31.2762C28.2333 31.3349 28.2821 31.4491 28.6524 31.5267C29.6858 31.7428 30.2428 32.1711 30.9514 32.5558C31.1269 32.6511 31.1038 32.6363 31.3004 32.6822C31.3004 32.0655 31.2062 32.1088 31.0298 31.7155C30.9446 31.5255 30.9413 31.5047 30.8483 31.326C30.7735 31.1823 30.7025 31.0375 30.6054 30.9028C29.7741 29.7487 28.4281 29.0978 27.0729 28.7291C26.8728 28.6747 26.7164 28.6713 26.5154 28.6212C26.0851 28.5138 25.9312 28.3972 25.4085 28.3972H21.9874C21.2824 28.3972 21.3524 29.6831 21.2309 30.3055L20.7572 32.5922C20.6383 33.1135 20.646 33.6103 20.4984 34.1421L19.6824 38.7521C19.6808 38.7644 19.6242 39.0785 19.6043 39.1531C19.5246 39.4501 19.5399 39.2803 19.4795 39.5184C19.4123 39.7835 19.4726 40.0143 19.8018 40.0143Z" fill="#034F9A"/>
<path fill-rule="evenodd" clip-rule="evenodd" d="M23.982 15.7328C23.5408 16.5682 23.0567 20.6067 22.7336 21.8139C22.6542 22.1102 22.616 22.5359 22.5585 22.8764C22.3591 24.0567 21.8789 24.2076 23.887 24.2076C24.3002 24.2076 24.4271 23.4405 24.501 23.0137C24.6448 22.1827 24.4737 22.7106 24.7653 21.4693C24.9107 20.8506 24.7037 20.9196 25.0299 19.9251C25.6231 18.1166 23.7705 18.4942 29.7789 18.4942C30.2537 18.4942 30.7766 18.5509 31.1098 18.6843C31.3163 18.767 32.0596 19.2643 32.0596 18.6846C32.0596 17.5246 31.2367 16.6987 30.3141 16.2439C29.449 15.8174 29.9869 16.1256 29.3309 15.8959C27.8375 15.3729 25.5245 15.7328 23.982 15.7328Z" fill="#034F9A"/>
<path fill-rule="evenodd" clip-rule="evenodd" d="M5.64228 10.7811C7.83746 10.7811 7.10984 10.8952 7.44489 9.54021L8.37401 4.47222C8.46649 4.10982 8.52207 4.14706 8.5743 3.81587L9.03734 0.846522C9.08182 0.720744 9.66385 0.0209583 8.49316 0.0209583C6.97798 0.0209583 7.38336 -0.213935 6.79377 2.50791C6.68931 2.99006 6.71772 3.4719 6.58414 3.91663C6.52356 4.11841 6.44202 4.36595 6.41621 4.60536C6.38407 4.90356 6.3776 5.20061 6.33196 5.37793C6.25229 5.68735 6.18995 5.7274 6.14491 5.95229L5.6838 8.82301C5.6076 9.18877 5.01535 10.7811 5.64228 10.7811Z" fill="#034F9A"/>
<path fill-rule="evenodd" clip-rule="evenodd" d="M25.1238 10.4954C27.0681 10.4954 26.6485 10.7076 27.0069 9.43033L28.0703 3.83038C28.1643 2.85519 28.2622 3.16794 28.387 2.4336C28.5345 1.56469 28.2987 2.19592 28.6474 1.06718C28.9946 -0.056945 27.9637 0.226429 27.2319 0.271879C27.0447 0.283505 26.9652 0.164561 26.7873 0.538552C26.5436 1.05133 26.1533 3.83813 26.0651 4.10639C25.8392 4.79392 25.5792 6.73121 25.3197 7.73977C25.1881 8.25137 25.2554 8.69449 25.0786 9.21209C24.9697 9.53081 24.6122 10.4954 25.1238 10.4954Z" fill="#034F9A"/>
<path fill-rule="evenodd" clip-rule="evenodd" d="M33.6758 26.3025C34.7058 26.5429 35.5744 27.919 35.8615 28.1117C36.9367 27.8607 36.7179 26.9661 36.7168 26.3025C36.7155 25.3821 36.7167 24.4615 36.7167 23.541C36.5833 23.6305 36.447 23.7037 36.3301 23.8202C35.7322 24.4164 35.4735 24.9286 34.4566 25.5613C34.0451 25.8172 33.7204 25.7657 33.6758 26.3025Z" fill="#034F9A"/>
</g>
<defs>
<clipPath id="clip0_1673_535">
<rect width="230" height="40" fill="white"/>
</clipPath>
</defs>
</svg>
