<svg width="190" height="58" viewBox="0 0 190 58" fill="none" xmlns="http://www.w3.org/2000/svg">
<g clip-path="url(#clip0_1673_184)">
<path d="M34.9941 9.33433C35.4327 9.23954 35.8763 9.16471 36.3249 9.09985L38.4269 20.9731C37.9761 21.0135 37.5293 21.0903 37.0911 21.2026L34.9941 9.33433Z" fill="#E64649"/>
<path d="M34.4554 22.4098C34.8984 22.0987 35.3711 21.8314 35.8668 21.6116L29.833 11.1951C29.3541 11.4445 28.8853 11.6939 28.4316 12.0032L34.4554 22.4098Z" fill="#E64649"/>
<path d="M31.0326 28.9551C31.0334 28.5155 31.0705 28.0767 31.1435 27.6431H19.1313C19.1011 28.0721 19.0859 28.4978 19.0859 28.9202C19.0859 29.3093 19.0859 29.7034 19.1212 30.0926H31.0981C31.0498 29.7154 31.0279 29.3353 31.0326 28.9551Z" fill="#E64649"/>
<path d="M47.3185 28.9552C47.3203 30.9749 46.5555 32.9216 45.1757 34.4097C43.7958 35.8978 41.9016 36.8187 39.8681 36.9901C37.8347 37.1614 35.8104 36.5706 34.1963 35.3347C32.5821 34.0988 31.4959 32.3081 31.1527 30.3171L19.8613 34.4428C20.1113 35.3103 20.4195 36.1602 20.7838 36.9871L31.9996 32.9113L22.8455 40.574C23.4246 41.3766 24.0614 42.1368 24.7509 42.8489L33.3202 35.685L27.73 45.3682C28.6191 45.9858 29.5582 46.5298 30.5377 46.9946L35.7852 37.9L33.9554 48.2517C35.0908 48.5552 36.2515 48.7572 37.4234 48.8554L39.1323 39.1822L40.8512 48.8654C42.0766 48.7634 43.2898 48.5496 44.4755 48.2268L42.8877 39.247L47.4647 47.1542C48.7095 46.5896 49.8919 45.8991 50.9933 45.0938L46.8044 37.8452L53.2263 43.2181C54.2541 42.2215 55.1716 41.1194 55.9635 39.9305L50.217 35.1313L57.2489 37.6805C57.9121 36.3294 58.4194 34.9086 58.7611 33.4451L52.5761 31.1901H59.1291C59.2135 30.4363 59.2573 29.6786 59.2602 28.9202C59.2578 28.0427 59.1989 27.1662 59.0837 26.2961H46.8548C47.1589 27.1505 47.3157 28.0494 47.3185 28.9552Z" fill="#E64649"/>
<path d="M31.2434 27.1641C31.4073 26.4679 31.665 25.7968 32.0096 25.1685L20.7031 21.0378C20.4177 21.7009 20.1687 22.3787 19.957 23.0683L31.2434 27.1641Z" fill="#E64649"/>
<path d="M54.31 15.7646L45.1055 23.4673C45.3321 23.7057 45.5442 23.9573 45.7406 24.2206L54.9451 16.518C54.7384 16.2635 54.5267 16.0191 54.31 15.7646Z" fill="#E64649"/>
<path d="M49.7485 11.8984C49.4259 11.6989 49.0983 11.5043 48.7404 11.3247L42.6914 21.7263C43.0406 21.8902 43.3775 22.0786 43.6996 22.29L49.7485 11.8984Z" fill="#E64649"/>
<path d="M33.6527 23.0533L24.418 15.3357C23.9895 15.7947 23.5862 16.2786 23.2031 16.7774L32.4126 24.4652C32.7674 23.9411 33.1836 23.4605 33.6527 23.0334" fill="#E64649"/>
<path d="M39.9902 20.973C40.3967 21.012 40.7995 21.0821 41.195 21.1826L43.292 9.31927C42.8937 9.23446 42.4955 9.16961 42.0872 9.10974L39.9902 20.973Z" fill="#E64649"/>
<path d="M117.825 26.4607C117.244 26.5614 116.656 26.6114 116.066 26.6103C113.253 26.6103 111.847 25.1619 111.847 22.2651V18.319H109.967V15.216H111.847V12.3724H115.738V15.216H119.373L118.4 18.319H115.738V21.5966C115.692 22.0866 115.807 22.5783 116.066 22.9984C116.208 23.1424 116.381 23.2526 116.572 23.3209C116.764 23.3891 116.968 23.4136 117.17 23.3926C117.761 23.3905 118.347 23.2824 118.899 23.0733L119.287 26.0665C118.817 26.2548 118.326 26.3903 117.825 26.4706V26.4607ZM75.397 20.973L78.2753 26.2411H83.0187L78.9306 19.8006C79.7038 19.3706 80.3448 18.7414 80.7856 17.9797C81.2145 17.2173 81.4368 16.358 81.4308 15.4853C81.4479 14.6978 81.3021 13.9152 81.0024 13.1855C80.7223 12.5176 80.2892 11.9232 79.7371 11.4494C79.1475 10.9562 78.4609 10.5893 77.7208 10.3719C76.8417 10.1095 75.9269 9.98325 75.0089 9.99769H69.0859V26.2611H73.2345V21.0179H74.4493L75.397 20.973ZM73.2345 13.2504H74.4493C76.3245 13.2504 77.2621 13.9887 77.2621 15.4754C77.2621 16.962 76.3094 17.7652 74.404 17.7652H73.2143L73.2345 13.2504ZM95.1619 15.216H91.5074L91.467 16.4831C91.1381 15.9735 90.679 15.5587 90.1363 15.2808C89.5634 14.9933 88.9286 14.8478 88.2863 14.8568C87.5769 14.8507 86.8754 15.0042 86.2347 15.3058C85.6016 15.6028 85.0371 16.0257 84.5763 16.548C84.0937 17.0954 83.7238 17.7309 83.4875 18.4187C83.2196 19.1717 83.0865 19.9652 83.0943 20.7635C83.0845 21.5627 83.2141 22.3576 83.4774 23.1132C83.7052 23.7914 84.0629 24.4198 84.5309 24.964C84.9693 25.4733 85.5146 25.8819 86.1288 26.1613C86.7735 26.4543 87.4762 26.6009 88.1855 26.5904C88.8526 26.6009 89.5132 26.4592 90.1161 26.1763C90.6702 25.912 91.1395 25.501 91.4721 24.989L91.5124 26.2511H95.167L95.1619 15.216ZM90.8571 22.5046C90.6524 22.7256 90.4018 22.9002 90.1225 23.0165C89.8432 23.1327 89.5418 23.1878 89.239 23.178C88.9339 23.188 88.6303 23.1331 88.3485 23.0169C88.0667 22.9007 87.8135 22.726 87.6058 22.5046C87.1683 22.0208 86.9387 21.3872 86.9656 20.7385C86.94 20.0915 87.1696 19.46 87.6058 18.9775C87.8135 18.7561 88.0667 18.5814 88.3485 18.4652C88.6303 18.349 88.9339 18.294 89.239 18.304C89.5418 18.2942 89.8432 18.3493 90.1225 18.4656C90.4018 18.5818 90.6524 18.7565 90.8571 18.9775C91.291 19.4628 91.5169 20.0962 91.4872 20.7435C91.5169 21.3908 91.291 22.0242 90.8571 22.5095V22.5046ZM156.589 16.523C156.029 15.9889 155.368 15.5701 154.643 15.2908C153.065 14.7141 151.331 14.7141 149.754 15.2908C149.029 15.5689 148.367 15.9879 147.808 16.523C147.259 17.0586 146.826 17.6983 146.533 18.4038C146.217 19.142 146.059 19.9369 146.069 20.7385C146.059 21.5401 146.217 22.3351 146.533 23.0733C146.833 23.7773 147.274 24.4138 147.829 24.9446C148.384 25.4753 149.042 25.8892 149.764 26.1613C151.34 26.7465 153.077 26.7465 154.653 26.1613C155.384 25.8874 156.051 25.47 156.614 24.9341C157.175 24.3856 157.621 23.7323 157.925 23.0121C158.229 22.2919 158.386 21.5191 158.386 20.7385C158.386 19.958 158.229 19.1852 157.925 18.465C157.621 17.7447 157.175 17.0915 156.614 16.543L156.589 16.523ZM153.998 22.6442C153.527 23.1013 152.893 23.3573 152.234 23.3573C151.574 23.3573 150.941 23.1013 150.469 22.6442C150.007 22.1179 149.767 21.4354 149.799 20.7385C149.767 20.0416 150.007 19.3592 150.469 18.8328C150.941 18.3758 151.574 18.1198 152.234 18.1198C152.893 18.1198 153.527 18.3758 153.998 18.8328C154.459 19.3602 154.699 20.0419 154.668 20.7385C154.699 21.4351 154.459 22.1169 153.998 22.6442ZM144.718 20.3943C144.73 19.6116 144.602 18.833 144.34 18.0945C144.103 17.4476 143.73 16.8577 143.246 16.3634C142.758 15.8755 142.168 15.4992 141.517 15.2609C140.014 14.7351 138.373 14.7492 136.88 15.3008C136.189 15.5685 135.56 15.9705 135.03 16.4831C134.501 17.0084 134.092 17.6395 133.83 18.3339C133.54 19.0958 133.396 19.9045 133.406 20.7186C133.395 21.5542 133.553 22.3836 133.87 23.1581C134.169 23.8678 134.628 24.5007 135.211 25.0089C135.83 25.5375 136.553 25.9348 137.333 26.1763C138.238 26.4573 139.183 26.5937 140.131 26.5804C140.98 26.5849 141.827 26.4843 142.651 26.2811C143.367 26.1222 144.05 25.8456 144.673 25.4629L143.443 22.9685C142.957 23.1776 142.45 23.3332 141.93 23.4325C141.451 23.5318 140.963 23.5852 140.474 23.5921C138.699 23.5921 137.132 22.9635 136.743 21.7064H144.582C144.677 21.2705 144.721 20.8252 144.713 20.3793L144.718 20.3943ZM136.743 19.7009C137.043 18.2076 137.857 17.4626 139.188 17.4659C139.476 17.4542 139.764 17.4998 140.034 17.6C140.304 17.7003 140.552 17.8532 140.761 18.0496C141.194 18.5036 141.452 19.093 141.492 19.7158L136.743 19.7009ZM169.937 16.0391C170.592 16.824 170.92 17.9881 170.92 19.5312V26.2611H167.028V20.2746C167.028 18.9642 166.524 18.3073 165.516 18.304C165.28 18.2884 165.043 18.3296 164.826 18.4243C164.609 18.519 164.419 18.6643 164.271 18.8478C163.959 19.3132 163.811 19.867 163.848 20.4242V26.2611H159.956V15.216H163.762L163.807 16.5879C164.09 16.05 164.531 15.6099 165.073 15.3257C165.669 15.0163 166.335 14.8618 167.008 14.8767C167.552 14.8392 168.097 14.9258 168.601 15.1299C169.106 15.3341 169.556 15.6503 169.917 16.0541L169.937 16.0391ZM127.851 26.2611V20.2746C127.851 18.9642 127.347 18.3073 126.339 18.304C126.103 18.2884 125.866 18.3296 125.649 18.4243C125.432 18.519 125.242 18.6643 125.094 18.8478C124.782 19.3132 124.634 19.867 124.671 20.4242V26.2611H120.825V9.99769H124.716V16.3933C125.036 15.9072 125.486 15.5186 126.017 15.2708C126.598 14.9993 127.234 14.8645 127.877 14.8767C128.42 14.8372 128.966 14.923 129.471 15.1273C129.975 15.3315 130.425 15.6488 130.785 16.0541C131.441 16.839 131.768 18.003 131.768 19.5462V26.2611H127.851ZM100.772 25.6375L96.1852 15.211H100.45L102.723 21.1027L104.86 15.211H109.039L102.088 31.0753H98.1411L100.772 25.6375Z" fill="#E64649"/>
<path d="M73.7636 33.1456H75.7799L82.0103 48.3115H80.0545L78.2197 43.7218H71.2029L69.4084 48.3115H67.5332L73.7636 33.1456ZM77.6148 42.2252L74.7113 34.9017L71.8078 42.2252H77.6148Z" fill="#E64649"/>
<path d="M83.2409 38.3339H84.8539V40.07C85.1209 39.4472 85.5795 38.9235 86.1645 38.5734C86.7852 38.206 87.4981 38.0193 88.2212 38.0346C88.7359 38.0037 89.2511 38.0871 89.7291 38.2787C90.2071 38.4703 90.6357 38.7653 90.9835 39.1421C91.6824 40.0457 92.0263 41.1695 91.9514 42.305V48.3115H90.2375V42.5844C90.2971 41.7694 90.0884 40.9573 89.6427 40.2696C89.4206 40.0095 89.1395 39.8052 88.8224 39.6734C88.5052 39.5416 88.161 39.4861 87.8179 39.5113C87.4211 39.4913 87.0248 39.5598 86.6584 39.7118C86.2919 39.8638 85.9646 40.0953 85.7008 40.3893C85.1558 41.0744 84.8832 41.9334 84.9346 42.8039V48.2915H83.2207L83.2409 38.3339Z" fill="#E64649"/>
<path d="M97.335 48.6309C96.6975 48.6312 96.063 48.5439 95.4497 48.3715C94.907 48.2417 94.3939 48.0115 93.9375 47.693L94.1996 46.1964C94.6529 46.5167 95.1573 46.7595 95.6917 46.9148C96.2205 47.0957 96.7755 47.19 97.335 47.1942C97.9448 47.2275 98.5521 47.0928 99.0892 46.805C99.2808 46.6992 99.4399 46.5441 99.5499 46.3562C99.6599 46.1683 99.7167 45.9546 99.7142 45.7374C99.7285 45.4686 99.6542 45.2025 99.5025 44.9791C99.3029 44.7594 99.0544 44.5886 98.7767 44.4803C98.2853 44.2784 97.7799 44.1116 97.2644 43.9814C96.3744 43.7751 95.5456 43.365 94.8448 42.7841C94.5957 42.5444 94.4012 42.2549 94.2743 41.9348C94.1474 41.6148 94.091 41.2716 94.1089 40.9282C94.0918 40.517 94.1744 40.1077 94.3498 39.7345C94.5252 39.3613 94.7882 39.0351 95.117 38.7831C95.9251 38.2188 96.902 37.9411 97.8895 37.9948C98.4478 37.9986 99.0033 38.0724 99.5429 38.2144C100.035 38.3318 100.505 38.5272 100.934 38.7931L100.662 40.2498C99.8337 39.7169 98.8673 39.4328 97.8794 39.4316C97.339 39.4012 96.8009 39.5223 96.3268 39.7808C96.1544 39.8839 96.013 40.0308 95.9173 40.2063C95.8215 40.3817 95.775 40.5793 95.7824 40.7786C95.7707 40.9698 95.8068 41.161 95.8877 41.3351C95.9686 41.5092 96.0918 41.6607 96.2462 41.7763C96.7713 42.1118 97.3512 42.3549 97.9601 42.4947C98.938 42.7162 99.8583 43.1376 100.662 43.7319C100.925 43.9782 101.132 44.2776 101.267 44.6099C101.403 44.9422 101.465 45.2996 101.448 45.6576C101.456 46.0814 101.357 46.5004 101.16 46.8767C100.962 47.253 100.674 47.5748 100.319 47.8128C99.4392 48.3959 98.3927 48.6828 97.335 48.6309Z" fill="#E64649"/>
<path d="M108.344 48.571C107.355 48.5911 106.375 48.3791 105.485 47.9524C104.675 47.5587 104.002 46.933 103.555 46.1564C103.075 45.3108 102.834 44.3524 102.859 43.3827C102.843 42.4308 103.07 41.4903 103.52 40.6488C103.962 39.8546 104.622 39.2007 105.425 38.7631C106.315 38.289 107.313 38.0518 108.323 38.0746C108.852 38.0768 109.379 38.1438 109.891 38.2742C110.382 38.3955 110.856 38.5765 111.302 38.813L111.061 40.2697C110.634 40.0544 110.184 39.887 109.72 39.7708C109.264 39.6516 108.795 39.5879 108.323 39.5812C107.83 39.558 107.337 39.6344 106.874 39.806C106.411 39.9775 105.988 40.2405 105.632 40.579C105.287 40.9386 105.02 41.3637 104.847 41.8285C104.674 42.2933 104.598 42.7881 104.623 43.2829C104.592 43.7857 104.666 44.2895 104.839 44.7632C105.013 45.2368 105.282 45.6702 105.632 46.0367C106.007 46.3821 106.45 46.6485 106.932 46.82C107.415 46.9915 107.927 47.0645 108.439 47.0345C109.427 47.025 110.401 46.8145 111.302 46.4159L111.504 47.8327C111.039 48.0876 110.54 48.2757 110.022 48.3914C109.472 48.518 108.908 48.5783 108.344 48.571Z" fill="#E64649"/>
<path d="M113.768 32.1479H115.481V39.9304C115.768 39.3457 116.224 38.8592 116.792 38.5336C117.394 38.1971 118.076 38.0249 118.768 38.0347C119.283 38.0031 119.798 38.0861 120.276 38.2778C120.754 38.4695 121.183 38.7649 121.53 39.1422C122.229 40.0458 122.573 41.1696 122.498 42.3051V48.3116H120.784V42.5845C120.847 41.7693 120.638 40.9564 120.19 40.2697C119.968 40.0087 119.687 39.8037 119.37 39.6718C119.053 39.5399 118.708 39.4849 118.365 39.5114C117.968 39.4925 117.572 39.5615 117.206 39.7134C116.84 39.8653 116.512 40.0963 116.248 40.3894C115.705 41.0756 115.432 41.9338 115.481 42.804V48.2916H113.768V32.1479Z" fill="#E64649"/>
<path d="M128.259 48.6308C127.771 48.6617 127.283 48.5857 126.828 48.408C126.373 48.2304 125.963 47.9555 125.628 47.6031C124.966 46.7673 124.64 45.7192 124.711 44.6597V38.334H126.425V44.1808C126.356 44.9767 126.554 45.7727 126.989 46.4457C127.225 46.6922 127.515 46.8822 127.836 47.0015C128.158 47.1208 128.502 47.1661 128.844 47.1342C129.233 47.1535 129.622 47.0844 129.98 46.9323C130.339 46.7801 130.657 46.5488 130.911 46.2562C131.45 45.5683 131.718 44.7105 131.667 43.8416V38.3539H133.381V48.3315H131.768L131.727 46.6353C131.472 47.2685 131.006 47.7964 130.407 48.1319C129.749 48.4863 129.008 48.6586 128.259 48.6308ZM127.05 35.5403C126.905 35.546 126.76 35.5224 126.625 35.4709C126.49 35.4195 126.367 35.3412 126.263 35.2409C126.161 35.1352 126.081 35.0099 126.029 34.8727C125.977 34.7355 125.954 34.5891 125.961 34.4427C125.957 34.2959 125.983 34.1497 126.036 34.0127C126.09 33.8757 126.171 33.7506 126.273 33.6445C126.374 33.5417 126.495 33.4603 126.628 33.4054C126.762 33.3504 126.905 33.3232 127.05 33.3252C127.197 33.3206 127.343 33.3457 127.48 33.3988C127.617 33.452 127.741 33.5322 127.846 33.6346C127.951 33.7411 128.033 33.8677 128.087 34.0067C128.14 34.1457 128.165 34.2941 128.159 34.4427C128.164 34.5884 128.139 34.7336 128.086 34.8693C128.032 35.005 127.951 35.1282 127.846 35.2313C127.742 35.3343 127.618 35.415 127.481 35.4682C127.344 35.5213 127.197 35.5459 127.05 35.5403ZM130.901 35.5403C130.756 35.546 130.612 35.5224 130.476 35.4709C130.341 35.4195 130.218 35.3412 130.114 35.2409C130.012 35.1352 129.932 35.0099 129.88 34.8727C129.828 34.7355 129.805 34.5891 129.812 34.4427C129.808 34.2959 129.834 34.1497 129.888 34.0127C129.941 33.8757 130.022 33.7506 130.125 33.6445C130.225 33.5417 130.346 33.4603 130.479 33.4054C130.613 33.3504 130.756 33.3232 130.901 33.3252C131.048 33.3206 131.194 33.3457 131.331 33.3988C131.468 33.452 131.593 33.5322 131.697 33.6346C131.802 33.7411 131.884 33.8677 131.938 34.0067C131.992 34.1457 132.016 34.2941 132.01 34.4427C132.015 34.5884 131.991 34.7336 131.937 34.8693C131.883 35.005 131.802 35.1282 131.698 35.2313C131.593 35.3343 131.469 35.415 131.332 35.4682C131.195 35.5213 131.048 35.5459 130.901 35.5403Z" fill="#E64649"/>
<path d="M140.901 48.6308C139.762 48.6308 138.92 48.3314 138.381 47.7228C137.841 47.1142 137.574 46.1713 137.574 44.8792V39.7906H135.275V38.3339H137.574V35.4404H139.288V38.3339H142.816V39.7906H139.288V44.7395C139.235 45.3857 139.39 46.0319 139.731 46.5854C139.914 46.7878 140.143 46.9448 140.399 47.0436C140.655 47.1424 140.93 47.1802 141.203 47.1541C141.906 47.1519 142.598 46.9807 143.22 46.6552L143.421 48.072C142.651 48.4889 141.777 48.6826 140.901 48.6308Z" fill="#E64649"/>
<path d="M145.195 46.8749L151.385 39.7908H145.417V38.3341H153.402V39.7709L147.171 46.8549H153.543V48.3117H145.195V46.8749Z" fill="#E64649"/>
</g>
<defs>
<clipPath id="clip0_1673_184">
<rect width="152" height="40" fill="white" transform="translate(19 9)"/>
</clipPath>
</defs>
</svg>
