<svg width="120" height="58" viewBox="0 0 120 58" fill="none" xmlns="http://www.w3.org/2000/svg">
<g id="mtu_logo_dark 1" clip-path="url(#clip0_1673_163)">
<g id="Group">
<path id="Vector" d="M32.8742 4.31728C40.5476 4.31728 47.5305 7.26023 52.7461 12.0745C52.8304 12.1726 52.9701 12.0867 52.8489 11.9456C47.5305 4.70381 38.9344 0 29.2328 0C13.0845 0 -0.00585938 13.0275 -0.00585938 29.0982C-0.00585938 36.9331 3.10747 44.044 8.1669 49.2734C8.25937 49.3777 8.40322 49.3348 8.27992 49.1548C5.34127 44.6166 3.63561 39.2154 3.63561 33.4175C3.63767 17.3448 16.7281 4.31728 32.8742 4.31728Z" fill="#004576"/>
<path id="Vector_2" d="M35.1244 57.4335C30.739 57.3435 26.3228 56.0714 22.3792 53.5109C11.1425 46.216 7.97569 31.2394 15.3059 20.0567C18.7645 14.7802 23.9452 11.2912 29.6314 9.8453C29.7588 9.82076 29.7814 9.67965 29.5759 9.69192C22.145 10.1255 15.012 13.9376 10.6328 20.6191C3.30261 31.7998 6.46937 46.7784 17.7062 54.0734C22.6937 57.3108 28.4333 58.4888 33.916 57.8221C34.3353 57.7546 34.7504 57.6789 35.1614 57.5951C35.2929 57.5746 35.3422 57.4335 35.1244 57.4335Z" fill="#004576"/>
<path id="Vector_3" d="M55.201 40.242C54.7242 41.0867 54.1858 41.9027 53.5857 42.6798C52.1411 44.5532 50.347 46.2077 48.2242 47.5432C38.5513 53.6336 25.7486 50.7663 19.6288 41.1378C16.5627 36.3133 15.7572 30.7056 16.9347 25.5457C16.9799 25.3862 16.8607 25.3269 16.7744 25.5212C13.8563 31.6893 14.07 39.1643 18.0033 45.3528C24.1231 54.9793 36.9258 57.8486 46.5987 51.7582C47.5152 51.1815 48.3701 50.5434 49.1633 49.8562C52.1616 47.2528 54.2598 43.9151 55.3592 40.2911C55.4044 40.15 55.2914 40.0805 55.201 40.242Z" fill="#004576"/>
<g id="Group_2">
<g id="Group_3">
<path id="Vector_4" d="M49.0245 36.0988L48.4984 24.0161L41.9738 36.0988H39.0865L35.9773 23.6255L32.0502 36.0988H27.1777L33.3695 17.2079H38.4227L41.3943 29.2067L47.8347 17.2079H52.7482L53.638 36.0988H49.0245Z" fill="#004576"/>
<path id="Vector_5" d="M57.893 36.0985L60.1145 21.0545H54.0625L54.6461 17.2076H71.5506L70.9957 21.0545H64.917L62.6689 36.0985H57.893Z" fill="#004576"/>
<path id="Vector_6" d="M77.5171 17.2057L76.0745 27.0816C75.8237 28.8118 75.5175 32.1024 80.0714 32.1024C82.2374 32.1024 84.2904 31.1821 84.763 28.0571L86.4009 17.2057H91.1746L89.5101 28.7545C88.76 33.8878 85.1247 36.342 80.1002 36.342C72.7638 36.342 71.0664 31.8222 71.0664 29.3947C71.0664 29.004 71.1219 27.8322 71.3171 26.5765L72.7351 17.2036H77.5171V17.2057Z" fill="#004576"/>
</g>
</g>
<path id="Vector_7" d="M64.9261 41.7554H64.9467L65.3248 44.9049H63.6685L64.9261 41.7554ZM65.9742 40.2625H64.361L60.8613 47.4695H62.5382L63.2307 45.9152H65.4522L65.6721 47.4695H67.2339L65.9742 40.2625Z" fill="#9CB6CA"/>
<path id="Vector_8" d="M69.3743 44.4879C69.5839 43.8928 69.8983 43.6228 70.3586 43.6228C70.8416 43.6228 71.1231 43.9766 71.0388 44.4879H69.3743ZM72.3499 45.2998C72.6849 43.7885 71.8793 42.6514 70.3895 42.6514C68.953 42.6514 67.8125 43.8089 67.8125 45.2589C67.8125 46.6557 68.7352 47.5638 70.1799 47.5638C70.6731 47.5638 71.2485 47.439 71.8362 47.2202L72.0869 46.0422C71.3122 46.3551 70.7676 46.5228 70.3258 46.5228C69.6456 46.5228 69.1626 46.0749 69.2366 45.3019H72.3499V45.2998Z" fill="#9CB6CA"/>
<path id="Vector_9" d="M75.0102 43.4122L75.0308 43.4326C75.4705 42.8906 75.8384 42.6514 76.1836 42.6514C76.4672 42.6514 76.7077 42.7966 77.0323 43.1729L76.3727 44.4777C76.1323 44.1239 75.9329 43.9664 75.7028 43.9664C75.3678 43.9664 74.9999 44.3406 74.8438 44.6556L74.4451 47.4717H73.0312L73.7012 42.7373H75.115L75.0102 43.4122Z" fill="#9CB6CA"/>
<path id="Vector_10" d="M80.6568 44.8417C80.6568 45.4982 80.2478 46.4165 79.4299 46.4165C79.0107 46.4165 78.4867 46.0831 78.4867 45.3632C78.4867 44.8826 78.7806 43.7987 79.7033 43.7987C80.2787 43.7987 80.6568 44.2159 80.6568 44.8417ZM82.1241 44.8826C82.1241 43.5267 81.1294 42.6514 79.767 42.6514C78.2586 42.6514 77.0215 43.8396 77.0215 45.2794C77.0215 46.5617 78.0695 47.5638 79.4217 47.5638C80.9507 47.5638 82.1241 46.396 82.1241 44.8826Z" fill="#9CB6CA"/>
<path id="Vector_11" d="M91.2084 41.5468H88.2636L88.0231 43.2259H90.6124L90.4439 44.4141H87.8546L87.5916 46.2813H91.3009L91.1324 47.4695H85.9023L86.9093 40.3566H91.3728L91.2084 41.5468Z" fill="#9CB6CA"/>
<path id="Vector_12" d="M93.892 43.267C94.4695 42.8293 94.9401 42.6514 95.5175 42.6514C96.6169 42.6514 96.9108 43.5696 96.7752 44.539L96.3662 47.4697H94.9524L95.3511 44.6433C95.4148 44.1852 95.3079 43.6944 94.9318 43.6944C94.6071 43.6944 94.2187 43.9132 93.7379 44.4245L93.3084 47.4697H91.8945L92.5645 42.7352H93.9783L93.892 43.267Z" fill="#9CB6CA"/>
<path id="Vector_13" d="M100.463 44.361C100.463 44.8518 100.304 45.3836 99.6859 45.3836C99.277 45.3836 99.0263 45.1443 99.0263 44.7271C99.0263 44.0501 99.2996 43.684 99.801 43.684C100.212 43.684 100.463 43.9438 100.463 44.361ZM102.495 42.7351H99.8339C98.4817 42.7351 97.7275 43.6534 97.7275 44.5185C97.7275 45.1136 97.9905 45.5513 98.5557 45.8846C98.231 45.9685 98.1056 46.0196 97.9474 46.1239C97.7275 46.2691 97.5919 46.5206 97.5919 46.7599C97.5919 47.1035 97.8549 47.4491 98.2515 47.6352C97.4542 47.8848 97.0781 48.2406 97.0781 48.6987C97.0781 49.2202 97.5179 49.8665 99.3427 49.8665C101.281 49.8665 101.794 49.1057 101.794 48.3224C101.794 46.5186 98.9235 47.0503 98.9235 46.5084C98.9235 46.31 99.1023 46.2589 99.7825 46.2589C101.145 46.2589 101.774 45.3733 101.774 44.5287C101.774 44.2567 101.733 44.0706 101.595 43.7781H102.359L102.495 42.7351ZM99.1845 47.9175C100.033 48.1056 100.473 48.1568 100.473 48.5126C100.473 48.8357 100.159 48.9605 99.3612 48.9605C98.6276 48.9605 98.3132 48.8051 98.3132 48.4697C98.3152 48.2099 98.5351 48.0013 99.1845 47.9175Z" fill="#9CB6CA"/>
<path id="Vector_14" d="M104.215 47.4697H102.801L103.471 42.7352H104.885L104.215 47.4697ZM105.074 41.4202C105.074 41.8272 104.749 42.1503 104.34 42.1503C103.931 42.1503 103.606 41.8272 103.606 41.4202C103.606 41.0132 103.931 40.6901 104.34 40.6901C104.749 40.6901 105.074 41.0132 105.074 41.4202Z" fill="#9CB6CA"/>
<path id="Vector_15" d="M107.537 43.267C108.112 42.8293 108.585 42.6514 109.16 42.6514C110.259 42.6514 110.553 43.5696 110.418 44.539L110.009 47.4697H108.595L108.994 44.6433C109.055 44.1852 108.95 43.6944 108.574 43.6944C108.25 43.6944 107.861 43.9132 107.38 44.4245L106.951 47.4697H105.537L106.207 42.7352H107.621L107.537 43.267Z" fill="#9CB6CA"/>
<path id="Vector_16" d="M112.827 44.4879C113.037 43.8928 113.351 43.6228 113.812 43.6228C114.295 43.6228 114.576 43.9766 114.492 44.4879H112.827ZM115.803 45.2998C116.138 43.7885 115.332 42.6514 113.843 42.6514C112.406 42.6514 111.266 43.8089 111.266 45.2589C111.266 46.6557 112.188 47.5638 113.635 47.5638C114.128 47.5638 114.704 47.439 115.291 47.2202L115.542 46.0422C114.767 46.3551 114.221 46.5228 113.781 46.5228C113.101 46.5228 112.618 46.0749 112.692 45.3019H115.803V45.2998Z" fill="#9CB6CA"/>
<path id="Vector_17" d="M119.892 44.1954C119.378 43.9357 118.76 43.7987 118.519 43.7987C118.33 43.7987 118.205 43.8825 118.205 44.0073C118.205 44.5288 119.787 44.9256 119.787 46.0729C119.787 46.938 119.053 47.5536 118.005 47.5536C117.44 47.5536 116.957 47.4288 116.359 47.1261L116.559 46.0729C116.957 46.2181 117.407 46.4062 117.857 46.4062C118.141 46.4062 118.318 46.3019 118.318 46.1465C118.318 45.6352 116.725 45.1239 116.725 44.1852C116.725 43.2772 117.459 42.6514 118.507 42.6514C119.01 42.6514 119.46 42.7761 120.005 43.0788L119.892 44.1954Z" fill="#9CB6CA"/>
</g>
</g>
<defs>
<clipPath id="clip0_1673_163">
<rect width="120" height="58" fill="white"/>
</clipPath>
</defs>
</svg>
