<svg width="60" height="60" viewBox="0 0 60 60" fill="none" xmlns="http://www.w3.org/2000/svg">
<path d="M30.0013 10.8164C21.306 10.8164 15.0247 17.2969 14.0286 24.2578C13.4076 28.8984 14.9076 33.4219 18.0247 36.8437C20.7669 39.7734 22.2669 43.6875 22.2669 47.7188L22.2552 54.0703C22.2552 56.6367 24.3763 58.7109 27.0013 58.7109H33.1185C35.7435 58.7109 37.8646 56.6367 37.8646 54.0703L37.8763 47.7188C37.8763 43.5703 39.2474 39.7734 41.8724 37.0898C44.7435 34.1602 46.2435 30.375 46.2435 26.4609C46.2318 17.7773 38.8607 10.8164 30.0013 10.8164V10.8164ZM35.4857 54.0703C35.4857 55.2891 34.4896 56.2734 33.2357 56.2734H27.1185C25.8646 56.2734 24.8685 55.3008 24.8685 54.0703V51.2578H35.474V54.0703H35.4857ZM40.1263 35.3789C37.0091 38.5547 35.3802 42.9492 35.3802 47.7188V48.8203H24.7747V47.7188C24.7747 43.1953 22.8997 38.6836 19.7826 35.2617C17.0404 32.332 15.9154 28.5469 16.4076 24.6328C17.2865 18.7734 22.7357 13.2656 30.013 13.2656C37.6302 13.2656 43.7474 19.2539 43.7474 26.4609C43.7474 29.7539 42.4935 32.9297 40.1263 35.3789Z" fill="white"/>
<path d="M31.2422 1.28906H28.7461V7.14844H31.2422V1.28906Z" fill="white"/>
<path d="M45.1289 12.5859L46.875 14.332L51.1523 10.2187L49.3945 8.47266L45.1289 12.5859Z" fill="white"/>
<path d="M58.7109 27.6797H52.5938V30.1289H58.7109V27.6797Z" fill="white"/>
<path d="M7.40625 27.6797H1.28906V30.1289H7.40625V27.6797Z" fill="white"/>
<path d="M10.5586 8.46094L8.80078 10.207L13.0781 14.3203L14.8242 12.5742L10.5586 8.46094Z" fill="white"/>
</svg>
