<svg width="80" height="80" viewBox="0 0 80 80" fill="none" xmlns="http://www.w3.org/2000/svg">
<g clip-path="url(#clip0_1673_447)">
<path d="M40 80C62.0914 80 80 62.0914 80 40C80 17.9086 62.0914 0 40 0C17.9086 0 0 17.9086 0 40C0 62.0914 17.9086 80 40 80Z" fill="#FF0725" fill-opacity="0.3"/>
<path d="M40 75C59.33 75 75 59.33 75 40C75 20.67 59.33 5 40 5C20.67 5 5 20.67 5 40C5 59.33 20.67 75 40 75Z" fill="#FF0725" fill-opacity="0.3"/>
<path d="M40 70C56.5685 70 70 56.5685 70 40C70 23.4315 56.5685 10 40 10C23.4315 10 10 23.4315 10 40C10 56.5685 23.4315 70 40 70Z" fill="#FF0725"/>
<path d="M50.9138 44.066C49.3219 44.066 47.759 43.8171 46.2778 43.3276C45.5521 43.0801 44.6599 43.3071 44.2169 43.7621L41.2935 45.969C37.9031 44.1592 35.8147 42.0715 34.0297 38.7066L36.1716 35.8593C36.7281 35.3035 36.9277 34.4917 36.6886 33.73C36.197 32.2411 35.9473 30.6789 35.9473 29.0864C35.9474 27.9359 35.0115 27 33.8611 27H29.0863C27.9359 27 27 27.9359 27 29.0863C27 42.2725 37.7276 53 50.9138 53C52.0641 53 53.0001 52.0641 53.0001 50.9137V46.1523C53 45.002 52.0641 44.066 50.9138 44.066Z" fill="white"/>
</g>
<defs>
<clipPath id="clip0_1673_447">
<rect width="80" height="80" fill="white"/>
</clipPath>
</defs>
</svg>
