<svg width="175" height="157" viewBox="0 0 175 157" fill="none" xmlns="http://www.w3.org/2000/svg">
<circle cx="83" cy="75" r="75" fill="#FF0725" fill-opacity="0.05"/>
<circle cx="83" cy="75" r="60" fill="#FF0725" fill-opacity="0.1"/>
<circle cx="83" cy="75" r="45" fill="#FF0725" fill-opacity="0.7"/>
<path d="M5.75034 152.18C4.77834 152.18 3.83634 152.042 2.92434 151.766C2.02434 151.49 1.31034 151.124 0.782344 150.668L1.59234 148.85C2.10834 149.258 2.73834 149.594 3.48234 149.858C4.23834 150.11 4.99434 150.236 5.75034 150.236C6.68634 150.236 7.38234 150.086 7.83834 149.786C8.30634 149.486 8.54034 149.09 8.54034 148.598C8.54034 148.238 8.40834 147.944 8.14434 147.716C7.89234 147.476 7.56834 147.29 7.17234 147.158C6.77634 147.026 6.23634 146.876 5.55234 146.708C4.59234 146.48 3.81234 146.252 3.21234 146.024C2.62434 145.796 2.11434 145.442 1.68234 144.962C1.26234 144.47 1.05234 143.81 1.05234 142.982C1.05234 142.286 1.23834 141.656 1.61034 141.092C1.99434 140.516 2.56434 140.06 3.32034 139.724C4.08834 139.388 5.02434 139.22 6.12834 139.22C6.89634 139.22 7.65234 139.316 8.39634 139.508C9.14034 139.7 9.78234 139.976 10.3223 140.336L9.58434 142.154C9.03234 141.83 8.45634 141.584 7.85634 141.416C7.25634 141.248 6.67434 141.164 6.11034 141.164C5.18634 141.164 4.49634 141.32 4.04034 141.632C3.59634 141.944 3.37434 142.358 3.37434 142.874C3.37434 143.234 3.50034 143.528 3.75234 143.756C4.01634 143.984 4.34634 144.164 4.74234 144.296C5.13834 144.428 5.67834 144.578 6.36234 144.746C7.29834 144.962 8.06634 145.19 8.66634 145.43C9.26634 145.658 9.77634 146.012 10.1963 146.492C10.6283 146.972 10.8443 147.62 10.8443 148.436C10.8443 149.132 10.6523 149.762 10.2683 150.326C9.89634 150.89 9.32634 151.34 8.55834 151.676C7.79034 152.012 6.85434 152.18 5.75034 152.18ZM12.9487 142.388H15.1987V152H12.9487V142.388ZM14.0827 140.804C13.6747 140.804 13.3327 140.678 13.0567 140.426C12.7807 140.162 12.6427 139.838 12.6427 139.454C12.6427 139.07 12.7807 138.752 13.0567 138.5C13.3327 138.236 13.6747 138.104 14.0827 138.104C14.4907 138.104 14.8327 138.23 15.1087 138.482C15.3847 138.722 15.5227 139.028 15.5227 139.4C15.5227 139.796 15.3847 140.132 15.1087 140.408C14.8447 140.672 14.5027 140.804 14.0827 140.804ZM22.5618 152.126C21.5658 152.126 20.6718 151.916 19.8798 151.496C19.0878 151.076 18.4698 150.494 18.0258 149.75C17.5818 148.994 17.3598 148.142 17.3598 147.194C17.3598 146.246 17.5818 145.4 18.0258 144.656C18.4698 143.912 19.0818 143.33 19.8618 142.91C20.6538 142.49 21.5538 142.28 22.5618 142.28C23.5098 142.28 24.3378 142.472 25.0458 142.856C25.7658 143.24 26.3058 143.792 26.6658 144.512L24.9378 145.52C24.6618 145.076 24.3138 144.746 23.8938 144.53C23.4858 144.302 23.0358 144.188 22.5438 144.188C21.7038 144.188 21.0078 144.464 20.4558 145.016C19.9038 145.556 19.6278 146.282 19.6278 147.194C19.6278 148.106 19.8978 148.838 20.4378 149.39C20.9898 149.93 21.6918 150.2 22.5438 150.2C23.0358 150.2 23.4858 150.092 23.8938 149.876C24.3138 149.648 24.6618 149.312 24.9378 148.868L26.6658 149.876C26.2938 150.596 25.7478 151.154 25.0278 151.55C24.3198 151.934 23.4978 152.126 22.5618 152.126ZM33.9769 142.28C35.1889 142.28 36.1609 142.634 36.8929 143.342C37.6249 144.05 37.9909 145.1 37.9909 146.492V152H35.7409V146.78C35.7409 145.94 35.5429 145.31 35.1469 144.89C34.7509 144.458 34.1869 144.242 33.4549 144.242C32.6269 144.242 31.9729 144.494 31.4929 144.998C31.0129 145.49 30.7729 146.204 30.7729 147.14V152H28.5229V138.644H30.7729V143.504C31.1449 143.108 31.6009 142.808 32.1409 142.604C32.6929 142.388 33.3049 142.28 33.9769 142.28ZM49.969 147.248C49.969 147.404 49.957 147.626 49.933 147.914H42.391C42.523 148.622 42.865 149.186 43.417 149.606C43.981 150.014 44.677 150.218 45.505 150.218C46.561 150.218 47.431 149.87 48.115 149.174L49.321 150.56C48.889 151.076 48.343 151.466 47.683 151.73C47.023 151.994 46.279 152.126 45.451 152.126C44.395 152.126 43.465 151.916 42.661 151.496C41.857 151.076 41.233 150.494 40.789 149.75C40.357 148.994 40.141 148.142 40.141 147.194C40.141 146.258 40.351 145.418 40.771 144.674C41.203 143.918 41.797 143.33 42.553 142.91C43.309 142.49 44.161 142.28 45.109 142.28C46.045 142.28 46.879 142.49 47.611 142.91C48.355 143.318 48.931 143.9 49.339 144.656C49.759 145.4 49.969 146.264 49.969 147.248ZM45.109 144.08C44.389 144.08 43.777 144.296 43.273 144.728C42.781 145.148 42.481 145.712 42.373 146.42H47.827C47.731 145.724 47.437 145.16 46.945 144.728C46.453 144.296 45.841 144.08 45.109 144.08ZM54.2723 143.792C54.9203 142.784 56.0603 142.28 57.6923 142.28V144.422C57.5003 144.386 57.3263 144.368 57.1703 144.368C56.2943 144.368 55.6103 144.626 55.1183 145.142C54.6263 145.646 54.3803 146.378 54.3803 147.338V152H52.1303V142.388H54.2723V143.792ZM65.055 142.28C66.267 142.28 67.239 142.634 67.971 143.342C68.703 144.05 69.069 145.1 69.069 146.492V152H66.819V146.78C66.819 145.94 66.621 145.31 66.225 144.89C65.829 144.458 65.265 144.242 64.533 144.242C63.705 144.242 63.051 144.494 62.571 144.998C62.091 145.49 61.851 146.204 61.851 147.14V152H59.601V138.644H61.851V143.504C62.223 143.108 62.679 142.808 63.219 142.604C63.771 142.388 64.383 142.28 65.055 142.28ZM81.0472 147.248C81.0472 147.404 81.0352 147.626 81.0112 147.914H73.4692C73.6012 148.622 73.9432 149.186 74.4952 149.606C75.0592 150.014 75.7552 150.218 76.5832 150.218C77.6392 150.218 78.5092 149.87 79.1932 149.174L80.3992 150.56C79.9672 151.076 79.4212 151.466 78.7612 151.73C78.1012 151.994 77.3572 152.126 76.5292 152.126C75.4732 152.126 74.5432 151.916 73.7392 151.496C72.9352 151.076 72.3112 150.494 71.8672 149.75C71.4352 148.994 71.2192 148.142 71.2192 147.194C71.2192 146.258 71.4292 145.418 71.8492 144.674C72.2812 143.918 72.8752 143.33 73.6312 142.91C74.3872 142.49 75.2392 142.28 76.1872 142.28C77.1232 142.28 77.9572 142.49 78.6892 142.91C79.4332 143.318 80.0092 143.9 80.4172 144.656C80.8372 145.4 81.0472 146.264 81.0472 147.248ZM76.1872 144.08C75.4672 144.08 74.8552 144.296 74.3512 144.728C73.8592 145.148 73.5592 145.712 73.4512 146.42H78.9052C78.8092 145.724 78.5152 145.16 78.0232 144.728C77.5312 144.296 76.9192 144.08 76.1872 144.08ZM83.2084 142.388H85.4584V152H83.2084V142.388ZM84.3424 140.804C83.9344 140.804 83.5924 140.678 83.3164 140.426C83.0404 140.162 82.9024 139.838 82.9024 139.454C82.9024 139.07 83.0404 138.752 83.3164 138.5C83.5924 138.236 83.9344 138.104 84.3424 138.104C84.7504 138.104 85.0924 138.23 85.3684 138.482C85.6444 138.722 85.7824 139.028 85.7824 139.4C85.7824 139.796 85.6444 140.132 85.3684 140.408C85.1044 140.672 84.7624 140.804 84.3424 140.804ZM94.1895 151.478C93.9255 151.694 93.6015 151.856 93.2175 151.964C92.8455 152.072 92.4495 152.126 92.0295 152.126C90.9735 152.126 90.1575 151.85 89.5815 151.298C89.0055 150.746 88.7175 149.942 88.7175 148.886V144.26H87.1335V142.46H88.7175V140.264H90.9675V142.46H93.5415V144.26H90.9675V148.832C90.9675 149.3 91.0815 149.66 91.3095 149.912C91.5375 150.152 91.8675 150.272 92.2995 150.272C92.8035 150.272 93.2235 150.14 93.5595 149.876L94.1895 151.478ZM99.0105 152.126C98.2305 152.126 97.4685 152.024 96.7245 151.82C95.9805 151.616 95.3865 151.358 94.9425 151.046L95.8065 149.336C96.2385 149.624 96.7545 149.858 97.3545 150.038C97.9665 150.206 98.5665 150.29 99.1545 150.29C100.498 150.29 101.17 149.936 101.17 149.228C101.17 148.892 100.996 148.658 100.648 148.526C100.312 148.394 99.7665 148.268 99.0105 148.148C98.2185 148.028 97.5705 147.89 97.0665 147.734C96.5745 147.578 96.1425 147.308 95.7705 146.924C95.4105 146.528 95.2305 145.982 95.2305 145.286C95.2305 144.374 95.6085 143.648 96.3645 143.108C97.1325 142.556 98.1645 142.28 99.4605 142.28C100.12 142.28 100.78 142.358 101.44 142.514C102.1 142.658 102.64 142.856 103.06 143.108L102.196 144.818C101.38 144.338 100.462 144.098 99.4425 144.098C98.7825 144.098 98.2785 144.2 97.9305 144.404C97.5945 144.596 97.4265 144.854 97.4265 145.178C97.4265 145.538 97.6065 145.796 97.9665 145.952C98.3385 146.096 98.9085 146.234 99.6765 146.366C100.444 146.486 101.074 146.624 101.566 146.78C102.058 146.936 102.478 147.2 102.826 147.572C103.186 147.944 103.366 148.472 103.366 149.156C103.366 150.056 102.976 150.776 102.196 151.316C101.416 151.856 100.354 152.126 99.0105 152.126ZM111.082 151.478C110.818 151.694 110.494 151.856 110.11 151.964C109.738 152.072 109.342 152.126 108.922 152.126C107.866 152.126 107.05 151.85 106.474 151.298C105.898 150.746 105.61 149.942 105.61 148.886V144.26H104.026V142.46H105.61V140.264H107.86V142.46H110.434V144.26H107.86V148.832C107.86 149.3 107.974 149.66 108.202 149.912C108.43 150.152 108.76 150.272 109.192 150.272C109.696 150.272 110.116 150.14 110.452 149.876L111.082 151.478ZM121.653 147.248C121.653 147.404 121.641 147.626 121.617 147.914H114.075C114.207 148.622 114.549 149.186 115.101 149.606C115.665 150.014 116.361 150.218 117.189 150.218C118.245 150.218 119.115 149.87 119.799 149.174L121.005 150.56C120.573 151.076 120.027 151.466 119.367 151.73C118.707 151.994 117.963 152.126 117.135 152.126C116.079 152.126 115.149 151.916 114.345 151.496C113.541 151.076 112.917 150.494 112.473 149.75C112.041 148.994 111.825 148.142 111.825 147.194C111.825 146.258 112.035 145.418 112.455 144.674C112.887 143.918 113.481 143.33 114.237 142.91C114.993 142.49 115.845 142.28 116.793 142.28C117.729 142.28 118.563 142.49 119.295 142.91C120.039 143.318 120.615 143.9 121.023 144.656C121.443 145.4 121.653 146.264 121.653 147.248ZM116.793 144.08C116.073 144.08 115.461 144.296 114.957 144.728C114.465 145.148 114.165 145.712 114.057 146.42H119.511C119.415 145.724 119.121 145.16 118.629 144.728C118.137 144.296 117.525 144.08 116.793 144.08ZM128.224 152.126C127.228 152.126 126.334 151.916 125.542 151.496C124.75 151.076 124.132 150.494 123.688 149.75C123.244 148.994 123.022 148.142 123.022 147.194C123.022 146.246 123.244 145.4 123.688 144.656C124.132 143.912 124.744 143.33 125.524 142.91C126.316 142.49 127.216 142.28 128.224 142.28C129.172 142.28 130 142.472 130.708 142.856C131.428 143.24 131.968 143.792 132.328 144.512L130.6 145.52C130.324 145.076 129.976 144.746 129.556 144.53C129.148 144.302 128.698 144.188 128.206 144.188C127.366 144.188 126.67 144.464 126.118 145.016C125.566 145.556 125.29 146.282 125.29 147.194C125.29 148.106 125.56 148.838 126.1 149.39C126.652 149.93 127.354 150.2 128.206 150.2C128.698 150.2 129.148 150.092 129.556 149.876C129.976 149.648 130.324 149.312 130.6 148.868L132.328 149.876C131.956 150.596 131.41 151.154 130.69 151.55C129.982 151.934 129.16 152.126 128.224 152.126ZM139.639 142.28C140.851 142.28 141.823 142.634 142.555 143.342C143.287 144.05 143.653 145.1 143.653 146.492V152H141.403V146.78C141.403 145.94 141.205 145.31 140.809 144.89C140.413 144.458 139.849 144.242 139.117 144.242C138.289 144.242 137.635 144.494 137.155 144.998C136.675 145.49 136.435 146.204 136.435 147.14V152H134.185V138.644H136.435V143.504C136.807 143.108 137.263 142.808 137.803 142.604C138.355 142.388 138.967 142.28 139.639 142.28ZM151.961 142.28C153.173 142.28 154.145 142.634 154.877 143.342C155.609 144.05 155.975 145.1 155.975 146.492V152H153.725V146.78C153.725 145.94 153.527 145.31 153.131 144.89C152.735 144.458 152.171 144.242 151.439 144.242C150.611 144.242 149.957 144.494 149.477 144.998C148.997 145.49 148.757 146.204 148.757 147.14V152H146.507V142.388H148.649V143.63C149.021 143.186 149.489 142.85 150.053 142.622C150.617 142.394 151.253 142.28 151.961 142.28ZM158.83 142.388H161.08V152H158.83V142.388ZM159.964 140.804C159.556 140.804 159.214 140.678 158.938 140.426C158.662 140.162 158.524 139.838 158.524 139.454C158.524 139.07 158.662 138.752 158.938 138.5C159.214 138.236 159.556 138.104 159.964 138.104C160.372 138.104 160.714 138.23 160.99 138.482C161.266 138.722 161.404 139.028 161.404 139.4C161.404 139.796 161.266 140.132 160.99 140.408C160.726 140.672 160.384 140.804 159.964 140.804ZM167.957 147.878L166.283 149.462V152H164.033V138.644H166.283V146.708L170.945 142.388H173.645L169.631 146.42L174.023 152H171.287L167.957 147.878Z" fill="#212529"/>
<g clip-path="url(#clip0_1673_267)">
<path d="M100.04 55H93.6879C92.0561 55 90.7285 56.3275 90.7285 57.9593C90.7285 59.5911 92.0561 60.9186 93.6879 60.9186H97.0807V64.3116C97.0807 65.9433 98.4083 67.2709 100.04 67.2709C101.672 67.2709 102.999 65.9433 102.999 64.3116V57.9594C102.999 56.3276 101.672 55 100.04 55ZM101.406 64.3116C101.406 65.0646 100.793 65.6774 100.04 65.6774C99.2871 65.6774 98.6744 65.0647 98.6744 64.3116V60.1219C98.6744 59.6818 98.3177 59.3251 97.8776 59.3251H93.6879C92.9348 59.3251 92.3221 58.7124 92.3221 57.9594C92.3221 57.2063 92.9348 56.5936 93.6879 56.5936H100.04C100.793 56.5936 101.406 57.2063 101.406 57.9594V64.3116Z" fill="white"/>
<path d="M65.9594 67.2709C67.5912 67.2709 68.9186 65.9433 68.9186 64.3116V60.9187H72.3116C73.9433 60.9187 75.2709 59.5912 75.2709 57.9594C75.2709 56.3276 73.9433 55 72.3116 55H65.9594C64.3276 55 63 56.3276 63 57.9594V64.3116C63 65.9433 64.3276 67.2709 65.9594 67.2709ZM64.5936 57.9594C64.5936 57.2063 65.2063 56.5936 65.9594 56.5936H72.3116C73.0646 56.5936 73.6774 57.2062 73.6774 57.9593C73.6774 58.7124 73.0647 59.325 72.3116 59.325H68.1219C67.6818 59.325 67.3251 59.6818 67.3251 60.1218V64.3116C67.3251 65.0647 66.7124 65.6774 65.9594 65.6774C65.2063 65.6774 64.5936 65.0647 64.5936 64.3116V57.9594Z" fill="white"/>
<path d="M100.04 82.729C98.4084 82.729 97.0808 84.0566 97.0808 85.6884V89.0812H93.6879C92.0561 89.0812 90.7285 90.4088 90.7285 92.0406C90.7285 93.6723 92.0561 94.9999 93.6879 94.9999H100.04C101.672 94.9999 102.999 93.6723 102.999 92.0406V85.6884C102.999 84.0566 101.672 82.729 100.04 82.729ZM101.406 92.0406C101.406 92.7936 100.793 93.4063 100.04 93.4063H93.6879C92.9348 93.4063 92.3221 92.7937 92.3221 92.0406C92.3221 91.2876 92.9348 90.6749 93.6879 90.6749H97.8776C98.3177 90.6749 98.6744 90.3182 98.6744 89.8781V85.6884C98.6744 84.9353 99.2871 84.3226 100.04 84.3226C100.793 84.3226 101.406 84.9353 101.406 85.6884V92.0406Z" fill="white"/>
<path d="M72.3116 89.0813H68.9187V85.6884C68.9187 84.0566 67.5912 82.729 65.9594 82.729C64.3276 82.729 63 84.0566 63 85.6884V92.0406C63 93.6723 64.3276 94.9999 65.9594 94.9999H72.3116C73.9433 94.9999 75.271 93.6724 75.271 92.0406C75.271 90.4088 73.9434 89.0813 72.3116 89.0813ZM72.3116 93.4064H65.9594C65.2063 93.4064 64.5936 92.7937 64.5936 92.0406V85.6884C64.5936 84.9353 65.2063 84.3226 65.9594 84.3226C66.7124 84.3226 67.325 84.9353 67.325 85.6884V89.8781C67.325 90.3182 67.6818 90.6749 68.1218 90.6749H72.3116C73.0647 90.6749 73.6774 91.2876 73.6774 92.0406C73.6774 92.7937 73.0647 93.4064 72.3116 93.4064Z" fill="white"/>
<path d="M82.9999 69.1433C82.5599 69.1433 82.2031 69.5 82.2031 69.9401V80.0596C82.2031 80.4997 82.5599 80.8565 82.9999 80.8565C83.44 80.8565 83.7967 80.4997 83.7967 80.0596V69.9401C83.7967 69.5 83.44 69.1433 82.9999 69.1433Z" fill="white"/>
<path d="M88.0607 74.2031H85.5507C85.1106 74.2031 84.7539 74.5599 84.7539 74.9999C84.7539 75.44 85.1106 75.7967 85.5507 75.7967H88.0607C88.5008 75.7967 88.8575 75.44 88.8575 74.9999C88.8575 74.5599 88.5008 74.2031 88.0607 74.2031Z" fill="white"/>
<path d="M80.4494 74.2031H77.9394C77.4993 74.2031 77.1426 74.5599 77.1426 74.9999C77.1426 75.44 77.4993 75.7967 77.9394 75.7967H80.4494C80.8894 75.7967 81.2462 75.44 81.2462 74.9999C81.2462 74.5599 80.8894 74.2031 80.4494 74.2031Z" fill="white"/>
</g>
<defs>
<clipPath id="clip0_1673_267">
<rect width="40" height="40" fill="white" transform="translate(63 55)"/>
</clipPath>
</defs>
</svg>
