<svg width="24" height="24" viewBox="0 0 24 24" fill="none" xmlns="http://www.w3.org/2000/svg">
<g clip-path="url(#clip0_1673_605)">
<path d="M12 0C5.3829 0 0 5.38309 0 11.9992C0 18.6167 5.3829 24 12 24C18.6169 24 23.9998 18.6167 23.9998 11.9992C23.9998 5.38309 18.6169 0 12 0ZM17.6257 12.3817C17.6257 12.5838 17.551 12.7496 17.3485 12.7496H6.75367C6.55173 12.7496 6.37411 12.5838 6.37411 12.3817V11.6175C6.37411 11.4154 6.55173 11.2492 6.75367 11.2492H17.2714C17.4738 11.2492 17.6257 11.4154 17.6257 11.6175V12.3817Z" fill="#9AB9D7"/>
</g>
<defs>
<clipPath id="clip0_1673_605">
<rect width="24" height="24" fill="white"/>
</clipPath>
</defs>
</svg>
