<svg width="124" height="20" viewBox="0 0 124 20" fill="none" xmlns="http://www.w3.org/2000/svg">
<path d="M10 0L12.2451 6.90983H19.5106L13.6327 11.1803L15.8779 18.0902L10 13.8197L4.12215 18.0902L6.36729 11.1803L0.489435 6.90983H7.75486L10 0Z" fill="white"/>
<path d="M36 0L38.2451 6.90983H45.5106L39.6327 11.1803L41.8779 18.0902L36 13.8197L30.1221 18.0902L32.3673 11.1803L26.4894 6.90983H33.7549L36 0Z" fill="white"/>
<path d="M62 0L64.2451 6.90983H71.5106L65.6327 11.1803L67.8779 18.0902L62 13.8197L56.1221 18.0902L58.3673 11.1803L52.4894 6.90983H59.7549L62 0Z" fill="white"/>
<path d="M88 0L90.2451 6.90983H97.5106L91.6327 11.1803L93.8779 18.0902L88 13.8197L82.1221 18.0902L84.3673 11.1803L78.4894 6.90983H85.7549L88 0Z" fill="white"/>
<path d="M114 0L116.245 6.90983H123.511L117.633 11.1803L119.878 18.0902L114 13.8197L108.122 18.0902L110.367 11.1803L104.489 6.90983H111.755L114 0Z" fill="white"/>
</svg>
