<svg width="24" height="24" viewBox="0 0 24 24" fill="none" xmlns="http://www.w3.org/2000/svg">
<path d="M12 0C5.38309 0 0 5.38309 0 12.0002C0 18.6173 5.38309 24 12 24C18.6169 24 23.9998 18.6175 23.9998 12.0002C23.9998 5.3829 18.6169 0 12 0ZM17.6257 12.3805C17.6257 12.5825 17.4738 12.7504 17.2714 12.7504H12.9441C12.841 12.7504 12.7506 12.8309 12.7506 12.9338V17.2716C12.7506 17.4732 12.5918 17.6265 12.3906 17.6265H11.6263C11.4241 17.6265 11.2496 17.4732 11.2496 17.2716V12.9338C11.2496 12.8309 11.1759 12.7504 11.0724 12.7504H6.75348C6.55154 12.7504 6.37392 12.5825 6.37392 12.3805V11.6162C6.37392 11.4148 6.55154 11.25 6.75348 11.25H11.0724C11.1759 11.25 11.2496 11.1662 11.2496 11.0625V6.75289C11.2496 6.55095 11.4239 6.37372 11.6263 6.37372H12.3906C12.5916 6.37372 12.7506 6.55095 12.7506 6.75289V11.0625C12.7506 11.1662 12.8338 11.25 12.9381 11.25H17.2714C17.4738 11.25 17.6257 11.4148 17.6257 11.6162V12.3805Z" fill="#9AB9D7"/>
</svg>
